<svg id="svg" version="1.1" xmlns="http://www.w3.org/2000/svg" xmlns:xlink="http://www.w3.org/1999/xlink" width="400" height="240" viewBox="0, 0, 400,240"><g id="svgg"><path id="path0" d="M287.923 50.948 C 287.705 51.167,287.635 55.009,287.635 66.774 L 287.635 82.311 288.572 82.469 C 289.214 82.577,289.547 82.773,289.630 83.090 C 289.721 83.438,289.963 83.553,290.605 83.553 C 291.214 83.553,291.534 83.692,291.717 84.034 C 291.898 84.372,292.219 84.514,292.806 84.514 C 293.477 84.514,293.637 84.606,293.637 84.994 C 293.637 85.394,293.798 85.474,294.598 85.474 C 295.398 85.474,295.558 85.554,295.558 85.954 C 295.558 86.355,295.718 86.435,296.519 86.435 C 297.333 86.435,297.479 86.511,297.479 86.937 C 297.479 87.230,297.670 87.490,297.937 87.560 C 298.189 87.626,298.449 87.886,298.515 88.137 C 298.583 88.398,298.844 88.595,299.121 88.595 C 299.397 88.595,299.674 88.804,299.760 89.076 C 299.844 89.340,300.056 89.556,300.231 89.556 C 300.406 89.556,300.609 89.712,300.682 89.903 C 300.755 90.094,301.199 90.322,301.668 90.410 C 302.288 90.526,302.521 90.694,302.521 91.023 C 302.521 91.311,302.690 91.477,302.985 91.477 C 303.282 91.477,303.475 91.670,303.525 92.017 C 303.567 92.314,303.727 92.557,303.882 92.557 C 304.036 92.557,304.252 92.655,304.362 92.776 C 304.478 92.903,304.436 92.922,304.262 92.821 C 304.097 92.726,303.962 92.763,303.962 92.903 C 303.962 93.043,304.070 93.157,304.202 93.157 C 304.334 93.157,304.442 93.354,304.442 93.594 C 304.442 93.834,304.712 94.266,305.042 94.553 C 305.372 94.840,305.642 95.184,305.642 95.317 C 305.642 95.449,305.858 95.558,306.122 95.558 C 306.443 95.558,306.603 95.718,306.603 96.038 C 306.603 96.359,306.763 96.519,307.083 96.519 C 307.483 96.519,307.563 96.679,307.563 97.479 C 307.563 98.279,307.643 98.439,308.043 98.439 C 308.431 98.439,308.523 98.599,308.523 99.271 C 308.523 99.857,308.665 100.179,309.004 100.360 C 309.278 100.507,309.484 100.863,309.484 101.189 C 309.484 102.010,309.724 102.521,310.110 102.521 C 310.437 102.521,310.545 102.923,310.454 103.799 C 310.426 104.064,310.605 104.289,310.906 104.367 C 311.259 104.460,311.405 104.692,311.405 105.160 C 311.405 106.439,311.710 107.385,312.161 107.503 C 312.546 107.603,312.605 107.873,312.605 109.512 C 312.605 111.244,312.646 111.405,313.085 111.405 C 313.543 111.405,313.565 111.565,313.565 114.884 C 313.565 118.103,313.601 118.386,314.046 118.663 C 314.473 118.930,314.526 119.223,314.526 121.306 C 314.526 123.329,314.460 123.715,314.046 124.130 C 313.782 124.394,313.568 124.745,313.571 124.910 C 313.574 125.075,313.797 124.940,314.067 124.610 C 314.490 124.093,314.522 124.083,314.301 124.536 C 314.159 124.826,313.936 125.130,313.804 125.211 C 313.666 125.296,313.565 126.655,313.565 128.438 C 313.565 131.315,313.534 131.525,313.085 131.642 C 312.655 131.755,312.605 131.970,312.605 133.711 C 312.605 135.464,312.560 135.654,312.146 135.654 C 311.722 135.654,311.270 136.935,311.419 137.713 C 311.518 138.231,311.376 138.487,310.924 138.605 C 310.543 138.705,310.444 138.932,310.444 139.713 C 310.444 140.536,310.366 140.696,309.964 140.696 C 309.564 140.696,309.484 140.856,309.484 141.657 C 309.484 142.457,309.404 142.617,309.004 142.617 C 308.603 142.617,308.523 142.777,308.523 143.577 C 308.523 144.461,308.363 144.664,307.743 144.566 C 307.644 144.551,307.563 144.741,307.563 144.989 C 307.563 145.490,307.007 146.063,306.761 145.816 C 306.674 145.729,306.603 146.108,306.603 146.659 C 306.603 147.514,306.530 147.659,306.100 147.659 C 305.807 147.659,305.547 147.850,305.478 148.117 C 305.412 148.369,305.152 148.629,304.900 148.695 C 304.648 148.761,304.442 148.974,304.442 149.169 C 304.442 149.364,304.226 149.580,303.962 149.649 C 303.697 149.718,303.481 149.935,303.481 150.130 C 303.481 150.325,303.265 150.541,303.001 150.610 C 302.737 150.679,302.521 150.895,302.521 151.090 C 302.521 151.285,302.305 151.501,302.041 151.570 C 301.777 151.639,301.561 151.861,301.561 152.062 C 301.561 152.264,301.345 152.497,301.080 152.581 C 300.816 152.665,300.600 152.942,300.600 153.197 C 300.600 153.508,300.434 153.661,300.098 153.661 C 299.797 153.661,299.544 153.854,299.469 154.142 C 299.400 154.407,299.142 154.622,298.892 154.622 C 298.643 154.622,298.452 154.703,298.468 154.802 C 298.566 155.422,298.363 155.582,297.479 155.582 C 296.679 155.582,296.519 155.662,296.519 156.062 C 296.519 156.415,296.359 156.543,295.918 156.543 C 295.588 156.543,295.102 156.759,294.838 157.023 C 294.574 157.287,294.203 157.503,294.014 157.503 C 293.825 157.503,293.601 157.719,293.517 157.983 C 293.411 158.320,293.154 158.463,292.659 158.463 C 292.206 158.463,291.767 158.678,291.432 159.064 C 291.010 159.549,290.688 159.664,289.753 159.664 C 288.756 159.664,288.595 159.730,288.595 160.144 C 288.595 160.572,288.435 160.624,287.132 160.624 C 285.871 160.624,285.652 160.691,285.544 161.104 C 285.429 161.542,285.216 161.585,283.143 161.585 C 281.069 161.585,280.856 161.627,280.742 162.065 C 280.619 162.536,280.414 162.545,269.499 162.545 C 263.385 162.545,258.212 162.611,258.003 162.691 C 257.662 162.822,257.623 164.410,257.623 178.177 L 257.623 193.517 270.108 193.517 C 282.273 193.517,282.605 193.505,283.073 193.037 C 283.439 192.671,283.874 192.557,284.896 192.557 C 286.038 192.557,286.258 192.485,286.365 192.077 C 286.480 191.636,286.693 191.597,288.984 191.597 C 290.987 191.597,291.477 191.529,291.477 191.253 C 291.477 190.813,291.994 190.662,293.637 190.623 C 295.030 190.589,296.279 190.241,296.279 189.887 C 296.279 189.771,296.643 189.676,297.089 189.676 C 298.579 189.676,299.400 189.410,299.400 188.926 C 299.400 188.518,300.953 188.248,302.122 188.454 C 302.232 188.473,302.380 188.270,302.450 188.002 C 302.550 187.618,302.775 187.515,303.509 187.515 C 304.282 187.515,304.442 187.433,304.442 187.035 C 304.442 186.609,304.602 186.555,305.866 186.555 C 307.080 186.555,307.313 186.484,307.443 186.074 C 307.557 185.714,307.806 185.594,308.442 185.594 C 309.087 185.594,309.319 185.480,309.414 185.114 C 309.509 184.750,309.742 184.634,310.375 184.634 C 310.997 184.634,311.240 184.516,311.331 184.171 C 311.414 183.850,311.749 183.657,312.418 183.544 C 313.078 183.433,313.421 183.238,313.503 182.927 C 313.568 182.677,313.799 182.473,314.016 182.473 C 314.233 182.473,314.545 182.257,314.710 181.993 C 314.902 181.686,315.270 181.513,315.728 181.513 C 316.287 181.513,316.447 181.406,316.447 181.032 C 316.447 180.641,316.607 180.552,317.309 180.552 C 317.970 180.552,318.202 180.440,318.298 180.072 C 318.370 179.796,318.625 179.592,318.898 179.592 C 319.171 179.592,319.426 179.388,319.498 179.112 C 319.568 178.846,319.826 178.631,320.076 178.631 C 320.401 178.631,320.528 178.459,320.528 178.017 C 320.528 177.679,320.625 177.463,320.744 177.536 C 321.209 177.823,322.449 177.376,322.449 176.921 C 322.449 176.631,322.620 176.471,322.929 176.471 C 323.249 176.471,323.409 176.311,323.409 175.990 C 323.409 175.676,323.569 175.510,323.873 175.510 C 324.129 175.510,324.406 175.294,324.490 175.030 C 324.574 174.766,324.851 174.550,325.106 174.550 C 325.410 174.550,325.570 174.384,325.570 174.070 C 325.570 173.746,325.730 173.589,326.062 173.589 C 326.332 173.589,326.804 173.319,327.110 172.989 C 327.416 172.659,327.791 172.389,327.945 172.389 C 328.098 172.389,328.328 172.112,328.457 171.774 C 328.587 171.433,328.805 171.230,328.947 171.318 C 329.088 171.405,329.261 171.260,329.330 170.995 C 329.399 170.730,329.646 170.463,329.878 170.402 C 330.121 170.339,330.365 169.965,330.454 169.518 C 330.553 169.024,330.784 168.698,331.091 168.617 C 331.358 168.548,331.573 168.290,331.573 168.039 C 331.573 167.753,331.742 167.587,332.036 167.587 C 332.332 167.587,332.529 167.392,332.582 167.047 C 332.627 166.750,332.799 166.534,332.964 166.568 C 333.129 166.602,333.367 166.359,333.493 166.028 C 333.619 165.697,333.886 165.426,334.088 165.426 C 334.289 165.426,334.454 165.223,334.454 164.974 C 334.454 164.724,334.668 164.466,334.934 164.396 C 335.302 164.300,335.414 164.069,335.414 163.408 C 335.414 162.705,335.503 162.545,335.894 162.545 C 336.214 162.545,336.375 162.385,336.375 162.065 C 336.375 161.754,336.535 161.585,336.829 161.585 C 337.325 161.585,337.575 161.140,337.575 160.261 C 337.575 159.907,337.754 159.639,338.055 159.544 C 338.319 159.460,338.535 159.195,338.535 158.955 C 338.535 158.716,338.752 158.463,339.016 158.394 C 339.383 158.298,339.496 158.066,339.496 157.405 C 339.496 156.703,339.585 156.543,339.976 156.543 C 340.376 156.543,340.456 156.383,340.456 155.582 C 340.456 154.921,340.561 154.622,340.791 154.622 C 341.195 154.622,341.417 154.105,341.417 153.162 C 341.417 152.628,341.528 152.461,341.883 152.461 C 342.260 152.461,342.363 152.266,342.423 151.441 C 342.484 150.600,342.576 150.434,342.941 150.496 C 343.208 150.542,343.322 150.470,343.227 150.316 C 343.140 150.175,343.183 150.060,343.323 150.060 C 343.463 150.060,343.577 149.721,343.577 149.306 C 343.577 148.886,343.751 148.425,343.969 148.266 C 344.207 148.092,344.407 147.500,344.478 146.760 C 344.567 145.826,344.701 145.512,345.047 145.421 C 345.425 145.322,345.498 145.071,345.498 143.868 C 345.498 142.635,345.566 142.415,345.978 142.307 C 346.405 142.196,346.459 141.980,346.459 140.387 C 346.459 138.793,346.513 138.577,346.939 138.466 C 347.378 138.351,347.419 138.138,347.419 135.945 C 347.419 133.751,347.459 133.539,347.899 133.424 C 348.371 133.300,348.379 133.096,348.379 121.159 C 348.379 109.266,348.370 109.015,347.899 108.764 C 347.469 108.533,347.419 108.261,347.419 106.142 C 347.419 103.979,347.378 103.767,346.939 103.652 C 346.516 103.541,346.459 103.324,346.459 101.825 C 346.459 100.384,346.385 100.078,345.978 99.824 C 345.598 99.587,345.498 99.264,345.498 98.270 C 345.498 97.261,345.404 96.965,345.018 96.759 C 344.662 96.568,344.538 96.256,344.538 95.550 C 344.538 94.758,344.457 94.598,344.058 94.598 C 343.645 94.598,343.577 94.437,343.574 93.457 C 343.571 92.569,343.116 90.970,343.101 91.794 C 343.088 92.465,342.377 91.108,342.377 90.413 C 342.377 89.716,342.287 89.556,341.897 89.556 C 341.497 89.556,341.417 89.396,341.417 88.595 C 341.417 87.795,341.337 87.635,340.936 87.635 C 340.538 87.635,340.456 87.475,340.456 86.691 C 340.456 85.958,340.349 85.713,339.976 85.594 C 339.712 85.510,339.496 85.233,339.496 84.978 C 339.496 84.723,339.280 84.298,339.016 84.034 C 338.752 83.770,338.535 83.337,338.535 83.073 C 338.535 82.760,338.375 82.593,338.076 82.593 C 337.728 82.593,337.578 82.362,337.455 81.633 C 337.332 80.904,337.182 80.672,336.834 80.672 C 336.504 80.672,336.375 80.503,336.375 80.072 C 336.375 79.632,336.246 79.472,335.894 79.472 C 335.574 79.472,335.414 79.312,335.414 78.992 C 335.414 78.671,335.254 78.511,334.934 78.511 C 334.543 78.511,334.454 78.351,334.454 77.649 C 334.454 76.988,334.341 76.756,333.974 76.660 C 333.536 76.546,333.388 76.298,333.465 75.810 C 333.481 75.711,333.277 75.630,333.013 75.630 C 332.699 75.630,332.533 75.470,332.533 75.166 C 332.533 74.911,332.317 74.634,332.053 74.550 C 331.789 74.466,331.573 74.240,331.573 74.048 C 331.573 73.855,331.317 73.601,331.005 73.482 C 330.693 73.363,330.372 73.096,330.292 72.888 C 330.212 72.679,329.982 72.509,329.779 72.509 C 329.572 72.509,329.412 72.300,329.412 72.029 C 329.412 71.709,329.252 71.549,328.932 71.549 C 328.611 71.549,328.451 71.389,328.451 71.068 C 328.451 70.748,328.291 70.588,327.971 70.588 C 327.651 70.588,327.491 70.428,327.491 70.108 C 327.491 69.788,327.331 69.628,327.011 69.628 C 326.684 69.628,326.531 69.468,326.531 69.125 C 326.531 68.833,326.339 68.572,326.073 68.503 C 325.821 68.437,325.561 68.177,325.495 67.925 C 325.425 67.658,325.165 67.467,324.872 67.467 C 324.536 67.467,324.370 67.314,324.370 67.003 C 324.370 66.706,324.177 66.513,323.830 66.463 C 323.459 66.411,323.313 66.249,323.364 65.949 C 323.415 65.647,323.303 65.525,323.004 65.556 C 321.899 65.671,321.489 65.538,321.489 65.066 C 321.489 64.746,321.329 64.586,321.008 64.586 C 320.688 64.586,320.528 64.426,320.528 64.106 C 320.528 63.778,320.368 63.625,320.026 63.625 C 319.731 63.625,319.473 63.434,319.402 63.162 C 319.319 62.845,318.986 62.649,318.344 62.541 C 317.637 62.422,317.407 62.270,317.407 61.924 C 317.407 61.622,317.239 61.465,316.919 61.465 C 316.651 61.465,316.367 61.296,316.288 61.091 C 316.209 60.885,315.996 60.774,315.815 60.843 C 315.634 60.912,315.486 60.865,315.486 60.737 C 315.486 60.609,315.283 60.504,315.034 60.504 C 314.784 60.504,314.526 60.290,314.456 60.024 C 314.359 59.653,314.129 59.544,313.445 59.544 C 312.762 59.544,312.531 59.434,312.435 59.064 C 312.336 58.687,312.107 58.583,311.377 58.583 C 310.604 58.583,310.444 58.501,310.444 58.103 C 310.444 57.703,310.284 57.623,309.484 57.623 C 308.703 57.623,308.523 57.538,308.523 57.171 C 308.523 56.715,307.920 56.432,306.931 56.426 C 306.622 56.424,306.369 56.232,306.293 55.942 C 306.186 55.534,305.965 55.462,304.824 55.462 C 303.654 55.462,303.481 55.402,303.481 54.995 C 303.481 54.608,303.286 54.516,302.341 54.455 C 301.520 54.402,301.200 54.281,301.200 54.022 C 301.200 53.744,300.828 53.645,299.575 53.590 C 298.270 53.533,297.892 53.427,297.656 53.050 C 297.416 52.666,297.092 52.581,295.861 52.581 C 294.518 52.581,294.358 52.530,294.358 52.101 C 294.358 51.652,294.198 51.621,291.894 51.621 C 289.691 51.621,289.400 51.570,289.131 51.140 C 288.791 50.596,288.346 50.525,287.923 50.948 " stroke="none" fill="#3cacaa" fill-rule="evenodd"></path><path id="path1" d="M63.625 121.542 L 63.625 193.505 80.944 193.514 C 97.209 193.523,98.282 193.498,98.583 193.100 C 98.989 192.565,99.085 50.180,98.679 50.180 C 98.547 50.180,98.439 50.045,98.439 49.880 C 98.439 49.643,94.798 49.580,81.032 49.580 L 63.625 49.580 63.625 121.542 M112.125 50.300 C 111.880 50.595,111.896 50.660,112.215 50.660 C 112.430 50.660,112.605 50.498,112.605 50.300 C 112.605 50.102,112.564 49.940,112.514 49.940 C 112.465 49.940,112.289 50.102,112.125 50.300 M98.619 156.002 C 98.586 175.249,98.558 159.502,98.558 121.008 C 98.558 82.515,98.586 66.768,98.619 86.014 C 98.653 105.261,98.653 136.756,98.619 156.002 " stroke="none" fill="#94949c" fill-rule="evenodd"></path><path id="path2" d="M73.187 49.640 C 77.587 49.676,84.718 49.676,89.033 49.640 C 93.348 49.603,89.748 49.573,81.032 49.573 C 72.317 49.573,68.786 49.603,73.187 49.640 M112.605 50.074 C 112.605 50.466,112.470 50.660,112.197 50.660 C 111.879 50.660,111.853 50.596,112.077 50.372 C 112.493 49.956,112.432 49.586,112.005 49.940 C 111.567 50.304,111.537 50.817,111.945 50.981 C 112.183 51.078,112.184 51.106,111.946 51.122 C 111.707 51.137,111.647 65.445,111.649 121.261 C 111.651 176.894,111.712 191.344,111.948 191.203 C 112.171 191.069,112.181 191.111,111.987 191.370 C 111.654 191.818,111.604 192.797,111.914 192.797 C 112.045 192.797,112.086 192.905,112.005 193.037 C 111.923 193.169,111.971 193.277,112.111 193.277 C 112.428 193.277,112.444 192.874,112.135 192.684 C 112.009 192.606,111.972 192.369,112.053 192.158 C 112.160 191.880,112.273 191.997,112.463 192.586 L 112.725 193.397 130.072 193.453 L 147.419 193.508 147.419 121.949 C 147.419 73.625,147.339 50.240,147.173 49.930 C 146.935 49.484,146.422 49.471,129.766 49.479 L 112.605 49.487 112.605 50.074 M98.558 121.008 C 98.558 159.502,98.586 175.249,98.619 156.002 C 98.653 136.756,98.653 105.261,98.619 86.014 C 98.586 66.768,98.558 82.515,98.558 121.008 M275.263 65.666 C 275.263 73.721,275.293 76.982,275.330 72.912 C 275.367 68.842,275.367 62.251,275.330 58.266 C 275.293 54.281,275.263 57.611,275.263 65.666 " stroke="none" fill="#848484" fill-rule="evenodd"></path><path id="path3" d="M161.687 49.666 C 161.433 49.713,161.089 49.861,160.924 49.995 C 160.445 50.384,160.488 192.695,160.967 193.174 C 161.558 193.765,195.193 193.679,195.701 193.086 C 195.904 192.848,196.027 192.524,195.975 192.365 C 195.922 192.207,195.994 192.077,196.136 192.077 C 196.538 192.077,196.500 51.458,196.098 50.580 C 195.933 50.221,195.582 49.873,195.318 49.807 C 194.770 49.670,162.394 49.535,161.687 49.666 " stroke="none" fill="#6c6c74" fill-rule="evenodd"></path><path id="path4" d="M170.546 49.640 C 175.012 49.676,182.251 49.676,186.632 49.640 C 191.013 49.603,187.359 49.573,178.511 49.573 C 169.664 49.573,166.079 49.603,170.546 49.640 M209.605 121.495 L 209.602 193.517 226.722 193.517 C 239.717 193.517,243.911 193.448,244.130 193.229 C 244.352 193.007,244.418 180.253,244.418 137.287 L 244.418 81.633 259.004 81.616 C 272.813 81.600,274.820 81.563,275.067 81.316 C 275.124 81.258,275.170 74.203,275.169 65.636 L 275.166 50.060 274.628 49.700 C 274.150 49.380,274.114 49.380,274.306 49.700 C 274.485 49.999,274.460 50.010,274.154 49.762 C 273.864 49.528,266.896 49.465,241.696 49.469 L 209.607 49.473 209.605 121.495 M99.038 121.008 C 99.038 159.766,99.066 175.621,99.100 156.242 C 99.134 136.864,99.134 105.153,99.100 85.774 C 99.066 66.396,99.038 82.251,99.038 121.008 M63.504 121.248 C 63.504 160.006,63.532 175.861,63.565 156.483 C 63.599 137.104,63.599 105.393,63.565 86.014 C 63.532 66.636,63.504 82.491,63.504 121.248 M111.523 121.248 C 111.523 159.742,111.551 175.489,111.585 156.242 C 111.619 136.996,111.619 105.501,111.585 86.255 C 111.551 67.008,111.523 82.755,111.523 121.248 M195.714 193.025 C 195.817 193.335,196.147 193.390,196.176 193.103 C 196.186 193.008,196.065 192.886,195.906 192.833 C 195.748 192.780,195.661 192.867,195.714 193.025 " stroke="none" fill="#5c5c5c" fill-rule="evenodd"></path></g></svg>