<?xml version="1.0" standalone="no"?>
<!DOCTYPE svg PUBLIC "-//W3C//DTD SVG 20010904//EN"
 "http://www.w3.org/TR/2001/REC-SVG-20010904/DTD/svg10.dtd">
<svg version="1.0" xmlns="http://www.w3.org/2000/svg"
 width="1200.000000pt" height="1300.000000pt" viewBox="0 0 1200.000000 1300.000000"
 preserveAspectRatio="xMidYMid meet">
<metadata>
Created by potrace 1.16, written by Peter Selinger 2001-2019
</metadata>
<g transform="translate(0.000000,1300.000000) scale(0.100000,-0.100000)"
fill="#000000" stroke="none">
<path d="M6320 12758 c-6 -18 -95 -280 -196 -582 -101 -301 -194 -570 -205
-596 l-20 -47 -82 -7 c-45 -4 -340 -6 -655 -6 -316 1 -576 -1 -580 -5 -13 -13
99 -105 523 -430 242 -186 452 -349 468 -363 15 -14 27 -34 27 -45 0 -20 -35
-138 -180 -612 -54 -176 -124 -405 -155 -510 -32 -104 -60 -196 -63 -204 -4
-10 -1 -13 10 -8 19 7 276 196 718 527 173 130 330 246 348 259 l33 23 57 -37
c31 -21 172 -120 312 -220 391 -278 791 -557 796 -553 3 4 -43 173 -296 1081
-43 155 -69 267 -66 280 4 12 41 49 84 82 42 32 246 189 452 348 373 286 484
376 478 383 -6 5 -633 32 -938 40 -146 3 -296 9 -334 13 l-69 6 -29 80 c-17
44 -99 274 -183 510 -212 595 -220 618 -232 622 -6 2 -16 -11 -23 -29z m120
-1105 c0 -49 -23 -103 -44 -103 -8 0 -28 8 -45 17 -29 17 -30 17 -54 -5 -13
-12 -28 -22 -35 -22 -22 0 -42 45 -42 95 0 104 27 127 45 38 6 -28 13 -54 16
-57 3 -3 16 5 29 19 l24 25 28 -27 28 -27 0 60 c0 34 3 64 7 68 16 15 43 -36
43 -81z m139 -70 c25 -17 76 -119 110 -220 39 -115 22 -204 -48 -250 -56 -38
-118 -25 -189 40 l-22 21 -17 -25 c-32 -46 -89 -98 -117 -105 -34 -8 -70 7
-90 39 -19 28 -42 126 -53 222 l-9 70 -44 -46 c-25 -25 -66 -69 -92 -96 -47
-51 -102 -81 -114 -62 -3 6 -8 38 -11 72 l-4 62 21 -27 c12 -16 28 -28 35 -28
25 0 77 54 123 125 52 82 80 115 99 115 25 0 44 -69 52 -184 8 -123 20 -156
55 -156 49 0 98 61 126 158 7 23 15 42 17 42 2 0 32 -29 66 -64 74 -77 111
-91 140 -55 24 30 18 101 -15 168 -19 38 -28 47 -54 49 -30 3 -32 6 -37 55 -4
29 -4 62 -1 75 8 27 39 29 73 5z m244 -275 c20 -35 44 -75 54 -90 15 -24 16
-34 4 -89 -7 -33 -10 -64 -6 -67 6 -6 42 5 183 57 89 33 187 42 210 19 18 -18
14 -59 -9 -98 -42 -68 -142 -180 -160 -180 -36 0 -20 35 40 90 34 31 63 67 67
83 6 26 5 27 -33 27 -22 0 -64 -7 -94 -16 -53 -16 -189 -83 -189 -94 0 -3 14
-59 31 -125 16 -66 33 -154 36 -196 6 -80 -2 -153 -16 -145 -12 8 -36 101 -75
290 -19 92 -37 171 -41 174 -9 10 -153 -23 -220 -49 -55 -22 -60 -27 -63 -58
-3 -28 8 -51 65 -134 l68 -99 3 -99 c3 -77 0 -105 -12 -123 -20 -32 -98 -50
-191 -44 -103 7 -168 44 -210 121 l-30 56 -40 -6 c-79 -12 -82 -15 -95 -95 -7
-40 -18 -85 -26 -99 -30 -60 -212 -170 -302 -185 -34 -5 -41 -3 -44 12 -3 14
21 37 98 91 55 39 129 98 163 130 69 66 76 94 41 163 -27 54 -26 96 4 115 21
14 29 14 82 0 89 -23 94 -22 94 24 0 57 8 71 40 71 27 0 28 -1 35 -74 6 -72 8
-76 51 -116 57 -53 116 -80 175 -80 60 0 109 17 109 39 0 26 -64 127 -124 195
-67 77 -76 95 -76 149 0 64 49 98 197 137 195 53 183 47 183 84 0 18 -11 65
-25 104 -14 39 -25 87 -25 106 0 39 15 86 28 86 4 0 24 -28 45 -62z m-653
-318 c0 -26 -8 -36 -52 -64 -29 -18 -84 -48 -122 -67 l-68 -33 6 -49 c7 -65
-11 -100 -64 -121 -22 -9 -47 -16 -55 -16 -24 0 -17 28 8 36 57 17 76 67 32
84 -29 11 -30 18 -10 65 12 30 27 41 107 79 51 24 113 59 138 79 57 46 80 48
80 7z m632 -197 c13 -29 17 -54 13 -76 -4 -19 2 -84 13 -148 29 -163 34 -234
23 -313 -21 -149 -40 -102 -71 177 -13 122 -29 216 -45 265 -25 77 -30 127
-19 170 l7 23 30 -28 c16 -15 38 -47 49 -70z m-531 -522 c26 -26 28 -32 18
-60 -20 -56 -72 -77 -117 -45 -38 26 -42 46 -22 92 17 38 22 42 55 42 27 0 44
-8 66 -29z"/>
<path d="M3642 12159 c-129 -22 -286 -107 -399 -217 -87 -84 -129 -170 -176
-354 l-22 -87 -100 66 c-120 79 -300 175 -379 203 -259 89 -550 9 -611 -168
-16 -48 -21 -192 -7 -192 5 0 35 23 66 50 63 55 105 80 134 80 24 0 32 -18 32
-76 0 -24 2 -44 4 -44 3 0 39 14 80 30 42 17 101 36 132 42 63 13 69 9 79 -53
6 -33 10 -38 43 -44 103 -19 306 -119 406 -199 35 -28 10 -28 -106 -2 -62 14
-142 30 -178 36 -95 15 -275 12 -373 -5 -279 -49 -554 -231 -657 -435 -46 -92
-63 -171 -64 -305 -1 -110 20 -283 32 -270 3 3 20 47 37 98 34 102 77 177 101
177 9 0 23 -18 32 -40 9 -22 20 -40 23 -40 3 0 16 42 28 93 28 111 78 224 127
284 35 43 37 44 56 26 11 -10 29 -35 39 -55 11 -21 22 -38 25 -38 3 0 16 12
27 28 67 85 143 152 175 152 5 0 12 -20 15 -45 2 -26 7 -49 11 -52 3 -3 27 5
53 19 96 52 283 105 283 80 0 -5 -11 -36 -25 -70 -14 -34 -25 -66 -25 -72 0
-6 51 -10 138 -10 106 0 157 -5 218 -20 84 -22 251 -99 278 -129 15 -17 11
-18 -97 -30 -153 -17 -336 -54 -448 -92 -496 -164 -793 -621 -788 -1212 1
-148 10 -146 57 13 41 136 93 260 110 260 4 0 20 -24 34 -52 l27 -53 17 45
c63 157 178 360 204 360 5 0 24 -27 43 -60 l33 -60 20 22 c11 13 52 66 92 119
79 105 221 239 255 239 4 0 16 -20 27 -45 23 -53 24 -53 107 18 95 81 233 151
356 181 44 10 27 -5 -85 -80 -118 -78 -258 -214 -306 -296 -52 -88 -84 -191
-90 -289 -6 -107 13 -179 67 -246 36 -46 119 -103 170 -118 24 -7 24 -7 17 54
-3 33 -9 89 -12 122 l-7 61 42 -7 c22 -4 41 -5 41 -3 0 1 -9 49 -19 106 -10
56 -15 102 -11 102 4 0 35 -18 70 -41 l62 -40 -6 93 c-9 121 17 308 43 308 4
0 19 -28 33 -62 14 -34 30 -64 35 -65 5 -2 29 31 53 74 24 42 56 90 69 106 25
30 132 87 163 87 35 0 172 -204 190 -282 5 -24 31 -73 58 -109 60 -83 66 -94
75 -144 4 -26 28 -68 67 -119 59 -79 59 -80 39 -95 -20 -16 -19 -18 56 -125
l77 -108 -24 -18 -24 -18 72 -119 c89 -148 89 -147 57 -161 -14 -6 -25 -15
-25 -19 0 -8 35 -53 133 -171 31 -38 57 -73 57 -77 0 -4 -25 -4 -55 0 -34 4
-55 3 -55 -3 0 -6 26 -43 57 -83 69 -89 153 -210 153 -220 0 -4 -13 -12 -30
-18 -16 -5 -30 -16 -30 -23 0 -7 25 -51 56 -97 47 -71 84 -138 84 -154 0 -3
-13 -10 -30 -17 -16 -7 -30 -14 -30 -16 0 -3 24 -53 54 -113 l55 -108 -147 -7
c-168 -7 -389 -48 -541 -99 l-96 -32 -12 -150 c-7 -82 -40 -497 -73 -922 -33
-425 -74 -930 -90 -1122 -16 -193 -26 -359 -22 -370 8 -21 181 -228 273 -325
l56 -59 159 80 c246 123 505 201 733 221 l91 8 31 -66 c17 -36 42 -89 56 -119
l24 -53 -33 5 c-18 3 -54 9 -81 13 l-47 6 10 -26 c5 -15 34 -69 65 -120 55
-94 79 -146 69 -146 -4 0 -33 16 -66 36 -32 20 -61 34 -64 31 -3 -3 25 -79 61
-169 37 -89 70 -169 73 -177 4 -11 -6 -12 -54 -7 -32 4 -67 9 -76 12 -26 8
-23 -8 27 -136 46 -116 77 -210 70 -210 -2 0 -29 9 -60 21 -31 12 -58 19 -60
17 -3 -2 9 -53 25 -114 41 -151 42 -148 -19 -124 -64 25 -333 159 -436 218
-141 79 -416 267 -550 375 -813 652 -1311 1682 -1352 2792 -11 325 28 638 124
988 133 485 346 901 710 1385 64 84 113 155 111 157 -18 18 -431 -371 -601
-565 -595 -678 -906 -1416 -978 -2314 -15 -197 -7 -715 16 -896 53 -435 87
-574 240 -975 364 -956 952 -1724 1701 -2223 380 -253 806 -440 1254 -549 229
-55 536 -110 695 -123 66 -5 185 -15 265 -21 209 -17 505 -6 712 25 674 103
1379 370 1878 714 451 310 800 682 1088 1159 284 470 516 1124 572 1610 123
1081 -62 2060 -543 2873 -83 140 -240 368 -342 495 -169 212 -521 575 -557
575 -11 0 -14 4 110 -175 378 -546 636 -1140 731 -1685 38 -217 46 -321 46
-590 0 -345 -25 -540 -111 -868 -89 -342 -197 -607 -353 -866 -436 -721 -1038
-1267 -1682 -1525 -105 -42 -210 -74 -217 -66 -3 3 6 39 58 219 22 78 26 77
-72 32 l-58 -26 0 23 c0 36 28 134 67 235 19 51 33 95 30 98 -2 3 -32 -2 -65
-10 -33 -9 -62 -16 -65 -16 -6 0 9 78 22 115 7 17 35 76 63 132 29 56 50 105
46 108 -3 4 -35 2 -70 -3 -34 -5 -64 -9 -66 -7 -1 1 19 46 44 99 26 53 44 99
41 102 -3 3 -22 1 -44 -5 -57 -16 -73 -14 -73 9 0 55 64 122 132 141 108 29
401 -80 739 -274 64 -37 121 -67 126 -67 13 0 251 282 297 352 19 29 18 96
-14 1268 -5 184 -14 547 -21 805 -6 259 -12 479 -15 490 -3 16 -25 27 -111 52
-185 56 -345 91 -590 128 l-42 7 24 46 c13 26 58 85 99 132 42 47 76 88 76 91
0 3 -27 12 -60 20 l-60 14 36 55 c21 30 64 81 96 114 32 33 58 61 58 63 0 2
-17 3 -37 4 -21 0 -46 3 -55 7 -29 12 32 104 143 216 55 54 99 100 99 102 0 1
-19 5 -42 9 -113 17 -112 5 -4 114 53 53 96 99 96 102 0 4 -22 9 -50 13 -27 4
-50 11 -50 16 0 14 103 121 164 170 31 25 56 48 56 51 0 3 -27 12 -60 19 -33
7 -60 15 -60 17 0 20 76 93 148 140 l86 57 -44 13 c-23 7 -45 15 -48 17 -8 9
38 73 83 115 24 22 67 55 95 72 28 17 49 36 47 42 -2 7 -20 16 -40 20 -20 5
-37 13 -37 18 0 15 81 90 138 129 29 19 52 38 52 41 0 4 -13 12 -30 19 -16 7
-30 18 -30 26 0 7 36 41 80 75 44 34 80 65 80 69 0 4 -10 14 -22 23 -22 14
-22 16 -6 32 12 13 25 16 52 11 49 -9 112 -84 178 -213 29 -56 59 -103 66
-103 7 0 24 26 38 58 19 44 27 53 34 41 13 -22 30 -171 30 -256 l0 -73 38 19
c20 10 47 22 60 25 33 11 30 -16 -14 -171 -6 -22 -4 -23 56 -23 l62 0 -6 -34
c-4 -18 -18 -62 -32 -96 -14 -34 -23 -64 -21 -67 11 -10 80 11 117 36 82 55
110 117 110 247 0 136 -52 291 -143 423 -46 68 -146 170 -262 266 -58 48 -105
89 -105 91 0 7 93 -21 139 -42 89 -40 173 -108 283 -225 l103 -111 8 39 c4 21
11 51 15 67 l7 30 76 -75 c82 -81 141 -171 195 -300 52 -124 56 -126 89 -30
16 45 32 81 36 81 4 0 26 -27 48 -61 45 -67 70 -140 97 -275 9 -49 20 -93 25
-98 4 -5 25 27 47 70 l40 79 17 -39 c29 -69 55 -185 65 -299 6 -61 13 -113 15
-116 3 -2 12 13 21 34 53 127 65 372 26 529 -90 363 -358 718 -665 881 -109
58 -265 109 -402 130 -135 22 -138 22 -130 35 12 20 125 70 192 86 87 21 239
14 340 -15 40 -12 77 -21 83 -21 15 0 11 49 -9 108 -10 28 -17 52 -15 52 25 0
131 -53 190 -96 41 -30 77 -54 80 -54 2 0 4 29 4 65 0 40 4 65 11 65 24 0 126
-117 149 -172 23 -53 28 -58 58 -58 l32 0 0 60 c0 33 3 60 6 60 20 0 45 -26
58 -62 12 -33 65 -331 66 -370 0 -17 25 -6 72 33 27 23 51 40 53 37 5 -5 70
-228 80 -275 9 -44 20 -41 39 10 50 132 63 323 31 453 -36 149 -118 277 -255
400 -116 103 -219 166 -350 212 -181 63 -373 77 -589 42 -68 -11 -126 -19
-128 -16 -2 2 13 17 34 33 111 87 212 119 343 110 47 -4 96 -9 109 -13 20 -6
22 -4 18 12 -3 10 -8 34 -12 52 -6 29 -5 32 19 32 37 0 123 -35 199 -80 36
-22 68 -40 71 -40 4 0 6 25 6 55 0 30 4 55 10 55 18 0 81 -63 106 -106 23 -39
30 -44 61 -44 l34 0 -6 58 c-22 186 -120 329 -261 382 -120 44 -322 46 -465 4
-70 -21 -179 -76 -221 -112 -18 -16 -44 -36 -57 -45 l-25 -17 -23 80 c-111
387 -430 660 -768 660 -99 0 -165 -8 -165 -20 0 -5 39 -30 86 -57 126 -70 172
-121 165 -180 -1 -7 21 -24 49 -38 59 -30 118 -81 143 -123 17 -30 17 -30 -14
-57 l-32 -26 24 -16 c89 -60 183 -201 195 -296 l7 -48 -74 51 c-122 85 -202
128 -300 162 -90 31 -100 33 -244 33 -175 0 -231 -13 -373 -81 -108 -52 -181
-118 -229 -209 -38 -73 -65 -173 -61 -227 l3 -41 76 65 c80 68 133 108 143
108 3 0 6 -32 6 -71 l0 -72 74 70 c64 61 162 123 195 123 14 0 14 7 -4 -86 -8
-43 -13 -79 -11 -82 2 -2 23 9 46 23 52 33 142 65 182 65 23 0 28 -4 24 -17
-2 -10 -8 -42 -11 -70 l-7 -53 99 0 c149 -1 199 -29 254 -145 27 -58 53 -175
39 -175 -4 0 -32 18 -64 41 -72 51 -274 148 -386 185 -78 26 -98 28 -245 28
-151 1 -165 -1 -243 -28 -203 -69 -356 -227 -406 -419 -32 -123 -29 -219 4
-156 19 35 82 99 112 115 30 16 30 16 49 -43 2 -7 34 14 74 49 39 34 97 79
130 100 l60 39 15 -45 c8 -24 18 -47 21 -50 3 -4 31 5 61 18 105 47 206 50
324 10 42 -14 164 -80 164 -88 0 -2 -39 5 -87 15 -100 21 -242 24 -311 8 -26
-6 -89 -31 -141 -56 -80 -38 -108 -59 -186 -137 -129 -128 -174 -224 -191
-407 -11 -126 -3 -125 115 11 57 66 108 120 112 120 4 0 10 -34 14 -75 4 -41
11 -75 16 -75 30 0 70 36 132 119 l70 95 13 -46 c27 -92 56 -89 139 12 71 86
132 133 207 160 29 10 54 17 56 15 2 -1 -12 -32 -30 -69 -31 -64 -34 -66 -69
-66 -37 0 -38 -1 -56 -57 -19 -57 -20 -58 -65 -67 -54 -11 -58 -18 -58 -118
l0 -68 -54 0 -55 0 -15 -72 c-8 -40 -20 -99 -26 -130 -6 -32 -16 -60 -21 -64
-5 -3 -26 9 -45 26 -20 17 -37 30 -39 28 -2 -2 -10 -52 -19 -113 -9 -60 -21
-138 -27 -173 l-11 -62 -40 22 c-31 18 -41 20 -47 9 -5 -7 -11 -68 -13 -136
-3 -68 -9 -128 -13 -134 -4 -8 -23 -2 -56 16 -64 36 -68 30 -69 -112 -1 -106
-11 -199 -22 -211 -4 -3 -22 -1 -41 4 l-34 10 -12 -132 c-7 -72 -14 -147 -18
-168 l-5 -36 -38 13 c-46 16 -43 24 -61 -151 l-12 -121 -34 10 c-18 6 -35 8
-37 6 -2 -2 0 -29 5 -59 4 -30 8 -90 8 -132 l1 -78 -209 0 c-318 0 -502 -29
-793 -127 l-139 -46 -122 51 c-362 152 -598 214 -917 242 -74 7 -136 13 -137
14 -1 0 4 33 11 71 8 39 17 87 20 109 l7 38 -44 -6 -44 -7 -6 92 c-4 51 -7
121 -7 156 l0 63 -45 0 -45 0 0 73 c0 39 -3 109 -6 153 l-7 81 -42 -5 -42 -4
-6 53 c-4 30 -7 77 -7 104 0 28 -3 74 -7 103 l-6 53 -40 -3 -41 -3 -17 115
c-10 63 -21 130 -24 147 l-6 33 -41 -21 c-22 -11 -44 -17 -48 -12 -5 4 -18 60
-30 123 -21 116 -38 180 -46 180 -3 0 -18 -10 -33 -21 -16 -12 -33 -19 -39
-15 -5 3 -12 27 -16 53 -3 27 -16 99 -27 162 l-22 113 -36 -6 c-20 -3 -46 -9
-58 -12 -19 -5 -22 0 -33 53 -34 167 -27 151 -74 158 l-43 7 -18 71 c-42 167
-42 166 -83 172 -63 11 -70 15 -103 56 l-32 40 39 -6 c112 -19 254 -126 353
-265 l46 -65 3 73 c2 39 7 72 11 72 26 0 107 -81 157 -157 32 -49 59 -90 61
-93 8 -10 22 26 34 87 11 56 15 63 33 57 33 -9 99 -88 151 -180 26 -47 49 -83
52 -81 6 6 -15 126 -39 222 -10 44 -40 123 -65 175 -38 79 -60 109 -127 176
-138 138 -279 191 -541 202 l-150 7 32 23 c17 12 67 32 110 43 120 32 223 17
421 -58 9 -4 12 11 12 56 0 72 6 74 88 36 67 -31 165 -124 205 -194 17 -30 32
-50 33 -45 1 5 6 36 9 69 l7 60 42 -46 c23 -26 59 -78 79 -115 33 -63 36 -66
37 -38 0 18 -12 71 -26 120 -76 265 -242 430 -520 517 -171 54 -416 61 -559
17 -84 -27 -189 -78 -266 -130 -32 -22 -60 -36 -63 -33 -10 10 -7 78 5 114 40
118 161 169 357 149 47 -5 88 -8 90 -6 3 3 -23 100 -36 135 -8 22 71 8 163
-29 43 -17 79 -29 81 -28 1 2 -2 23 -7 48 -5 24 -9 52 -7 62 3 16 7 16 57 -7
76 -36 146 -89 183 -141 17 -24 35 -44 40 -44 4 0 8 31 8 69 0 39 4 73 10 76
16 10 51 -14 123 -83 37 -36 67 -59 67 -51 0 19 -33 124 -55 174 -29 68 -104
176 -159 230 -68 66 -171 120 -282 146 -77 18 -110 20 -254 17 -189 -6 -252
-21 -439 -109 -57 -27 -105 -49 -107 -49 -2 0 6 25 16 55 28 81 67 142 142
221 60 63 67 75 62 101 -5 25 0 34 38 64 23 20 71 54 106 78 34 23 62 45 62
49 0 5 -7 17 -15 28 -8 10 -15 24 -15 29 0 14 73 57 172 100 45 20 87 41 93
46 12 12 -310 10 -383 -2z m212 -2003 c343 -522 635 -1123 831 -1710 100 -301
208 -707 191 -723 -9 -9 -156 -18 -156 -10 0 23 -133 479 -196 668 -194 590
-468 1166 -797 1672 -61 95 -69 112 -61 135 10 29 91 95 105 86 5 -3 42 -56
83 -118z m4878 -167 c92 -37 98 -9 -52 -234 -330 -496 -579 -963 -771 -1442
-64 -161 -149 -410 -184 -539 -14 -55 -33 -120 -41 -146 l-16 -48 -73 0 -74 0
26 93 c100 364 286 843 507 1302 156 324 565 1045 593 1045 5 0 43 -14 85 -31z
m-3710 -2384 c369 -35 685 -110 1106 -262 l152 -55 148 41 c306 85 611 130
942 138 229 6 370 -3 575 -38 128 -21 354 -76 445 -107 51 -18 55 -21 62 -58
4 -21 12 -309 18 -639 5 -330 15 -836 21 -1125 5 -289 9 -557 7 -597 l-3 -71
-139 55 c-364 143 -677 200 -1048 190 -359 -9 -616 -75 -963 -248 -88 -43
-164 -79 -170 -79 -5 0 -64 34 -130 75 -306 192 -567 296 -890 357 -105 20
-153 22 -390 23 -348 0 -489 -21 -829 -126 -88 -27 -161 -49 -164 -49 -6 0 2
231 23 605 8 154 24 451 35 660 30 580 60 1092 68 1170 l7 69 95 17 c96 18
376 55 460 62 123 10 424 5 562 -8z m253 -2750 c151 -11 141 -5 164 -104 53
-227 53 -522 0 -827 -23 -135 -84 -407 -100 -446 -13 -33 -19 -33 -124 -5
l-80 22 0 50 c0 28 9 127 20 220 28 245 26 634 -3 880 -29 238 -30 227 11 221
17 -3 68 -8 112 -11z m1979 -72 c-42 -182 -56 -310 -61 -543 -5 -232 -1 -323
33 -700 l6 -65 -137 -49 c-77 -28 -140 -45 -145 -40 -24 27 -73 329 -90 565
-12 159 -2 355 25 515 16 90 62 272 74 292 3 5 62 17 131 25 171 20 169 20
164 0z m-1479 -51 c97 -48 187 -113 276 -199 91 -87 91 -87 117 -72 15 9 88
55 162 103 118 76 368 211 377 203 6 -7 33 -150 33 -178 0 -24 -7 -33 -35 -46
-19 -9 -35 -22 -35 -30 0 -7 21 -64 46 -128 26 -63 45 -118 42 -121 -3 -2 -28
-7 -56 -11 -61 -7 -61 7 4 -188 l43 -130 -37 -3 c-62 -5 -65 -7 -46 -44 9 -18
46 -84 81 -146 36 -62 64 -115 61 -117 -2 -3 -36 -7 -75 -11 -83 -8 -82 4 -15
-156 l40 -96 -71 -14 c-51 -9 -170 -13 -402 -13 -294 0 -348 3 -489 24 -88 13
-174 28 -193 35 l-33 11 60 124 c61 126 63 140 20 141 -40 1 -42 15 -12 92 16
41 32 87 36 101 6 25 4 27 -29 27 l-36 0 7 38 c3 20 21 106 40 190 19 85 34
156 34 158 0 2 -11 4 -25 4 -14 0 -28 6 -31 13 -2 7 6 66 19 132 13 66 21 121
18 122 -3 1 -18 4 -33 7 l-27 6 37 105 c41 118 34 114 127 67z"/>
<path d="M7369 7395 c-28 -10 -273 -130 -287 -140 -8 -6 12 -57 24 -62 16 -6
260 102 287 127 13 12 17 28 15 52 l-3 35 -36 -12z"/>
<path d="M4720 7346 c-35 -14 -283 -125 -462 -210 -54 -25 -98 -50 -98 -55 0
-6 7 -26 16 -45 15 -31 15 -37 0 -82 -25 -74 -22 -79 27 -52 l42 23 3 66 3 67
62 22 c118 42 429 184 437 200 13 25 22 80 13 79 -4 0 -24 -6 -43 -13z"/>
<path d="M5570 7234 c-96 -42 -193 -84 -215 -94 -50 -22 -61 -35 -70 -84 -8
-39 -8 -39 21 -32 48 11 445 210 455 228 13 24 11 58 -3 58 -7 0 -92 -34 -188
-76z"/>
<path d="M5023 7274 c-10 -28 5 -203 32 -354 48 -274 73 -329 176 -385 47 -26
64 -30 134 -29 91 0 124 9 248 67 79 37 91 40 110 27 69 -43 133 -70 167 -70
47 0 87 37 96 89 11 56 -10 174 -42 239 -26 50 -33 57 -62 60 -44 4 -99 -29
-198 -119 -111 -101 -153 -133 -203 -159 -60 -30 -138 -37 -179 -16 -80 42
-111 109 -152 331 -33 185 -52 252 -82 303 -22 35 -35 40 -45 16z"/>
<path d="M7963 7265 c-114 -25 -243 -105 -243 -151 0 -41 27 -40 116 4 52 26
116 48 169 58 l85 17 0 44 c0 42 -1 43 -32 42 -18 0 -61 -7 -95 -14z"/>
<path d="M7317 7253 c-37 -42 -46 -126 -14 -151 19 -15 168 24 190 49 18 22
23 84 8 107 -6 10 -11 10 -21 -3 -19 -23 -89 -57 -105 -51 -8 3 -15 17 -17 32
-4 34 -19 40 -41 17z"/>
<path d="M4836 7199 c-13 -66 -5 -149 29 -283 19 -76 35 -147 35 -158 0 -11
-11 -23 -27 -29 -46 -17 -224 -33 -293 -25 l-66 7 -22 59 c-29 75 -75 138
-106 146 -36 9 -95 -23 -111 -60 -8 -17 -21 -57 -30 -88 -21 -79 -87 -171
-181 -251 -43 -38 -80 -72 -82 -76 -4 -11 131 5 157 18 13 7 43 28 67 46 l44
34 57 -20 c78 -26 97 -24 143 17 l39 36 129 -13 c198 -19 284 4 343 89 55 81
25 372 -54 516 -39 71 -61 82 -71 35z"/>
<path d="M6771 7158 c-113 -60 -135 -76 -147 -104 -18 -44 -18 -55 4 -47 22 8
315 142 318 146 8 8 -18 77 -29 77 -7 -1 -72 -33 -146 -72z"/>
<path d="M7408 7043 c-34 -5 -34 -4 -8 -208 24 -181 31 -161 -80 -217 -58 -29
-74 -33 -150 -33 -104 0 -124 12 -209 123 -67 89 -99 111 -135 94 -38 -17 -54
-50 -85 -175 -16 -63 -38 -129 -50 -145 -18 -26 -125 -105 -155 -115 -5 -2 -7
-11 -3 -20 5 -13 19 -17 55 -17 41 0 56 6 95 36 25 20 52 46 60 57 14 21 19
22 188 19 96 -2 193 -4 217 -4 60 -1 121 25 194 82 l63 49 55 -53 c88 -85 106
-91 245 -91 133 0 171 9 313 75 46 22 108 44 139 49 31 6 62 16 69 22 17 14
18 91 2 107 -20 20 -72 14 -149 -19 -87 -37 -142 -34 -191 10 -27 24 -32 36
-36 88 -7 99 35 121 148 77 l71 -27 46 19 c25 10 48 24 50 29 5 16 -112 84
-170 99 -165 43 -267 -85 -232 -289 8 -43 12 -81 10 -83 -2 -3 -35 -7 -73 -10
-80 -5 -117 9 -155 60 -35 47 -37 57 -53 227 -19 207 -13 195 -86 184z"/>
<path d="M5830 6315 c-96 -36 -417 -188 -427 -202 -7 -9 -13 -30 -13 -46 0
-28 2 -29 33 -23 38 7 386 182 421 211 23 19 45 76 29 74 -5 0 -24 -6 -43 -14z"/>
<path d="M4545 6256 c-131 -58 -468 -215 -474 -222 -2 -2 4 -21 14 -43 17 -38
17 -42 0 -95 -10 -31 -16 -59 -13 -61 9 -10 69 17 78 35 6 10 10 38 10 62 0
24 6 52 13 61 6 9 116 62 242 117 127 55 236 108 243 117 10 14 18 84 10 83
-2 -1 -57 -25 -123 -54z"/>
<path d="M7267 6269 c-9 -5 -24 -24 -33 -41 -19 -36 -9 -48 44 -48 17 0 32 -4
32 -8 0 -4 -14 -30 -30 -56 -17 -27 -30 -52 -28 -57 5 -16 97 49 118 83 41 68
17 138 -48 138 -20 0 -45 -5 -55 -11z"/>
<path d="M7884 6210 c-25 -10 -64 -57 -64 -76 0 -10 14 -14 46 -14 42 0 45 -1
39 -22 -4 -13 -16 -38 -26 -57 -11 -18 -18 -36 -15 -38 6 -7 67 26 93 50 25
22 38 74 29 111 -12 50 -51 67 -102 46z"/>
<path d="M7030 6168 c-71 -41 -75 -45 -78 -81 -3 -36 -2 -38 20 -32 13 3 56
22 96 41 54 26 72 40 72 55 0 23 -17 59 -28 59 -4 0 -41 -19 -82 -42z"/>
<path d="M5109 6151 c-43 -44 -39 -61 16 -61 25 0 45 -3 45 -7 0 -3 -14 -31
-31 -61 -17 -30 -28 -56 -25 -59 10 -11 91 44 113 76 46 69 19 141 -53 141
-26 0 -43 -8 -65 -29z"/>
<path d="M6530 6078 c-125 -63 -141 -74 -136 -92 3 -12 6 -27 6 -34 0 -19 26
-10 168 61 l122 61 0 38 c0 21 -4 38 -9 38 -5 0 -73 -32 -151 -72z"/>
<path d="M4752 6107 c-16 -43 -15 -117 3 -247 23 -166 26 -156 -52 -193 -86
-40 -180 -44 -255 -10 -45 20 -47 24 -68 92 -20 69 -50 111 -78 111 -23 0 -83
-52 -102 -89 -10 -20 -26 -63 -35 -96 -23 -79 -48 -128 -101 -196 -24 -30 -44
-58 -44 -62 0 -4 20 -7 44 -7 36 0 50 6 88 39 l45 40 29 -20 c43 -28 83 -24
133 13 l43 31 67 -21 c37 -12 81 -22 98 -22 49 0 118 25 186 68 l63 40 22 -39
c34 -59 79 -88 167 -104 130 -25 231 -19 436 26 l96 22 66 -27 c89 -35 156
-35 228 2 80 40 111 96 117 208 3 46 -1 112 -7 147 -25 129 -43 197 -51 197
-5 0 -27 -26 -49 -58 l-39 -58 24 -71 c13 -40 27 -106 30 -147 l7 -74 -39 -11
c-43 -12 -137 -15 -147 -4 -4 3 4 26 18 50 41 70 56 120 44 147 -17 36 -54 48
-162 54 -182 9 -282 -39 -275 -132 l3 -41 63 -16 c35 -9 68 -21 73 -26 13 -13
-164 -54 -259 -61 -87 -6 -171 11 -238 47 -60 32 -65 45 -126 329 -24 111 -45
202 -48 202 -4 0 -11 -15 -18 -33z"/>
<path d="M6815 6041 c-20 -45 -20 -39 20 -261 64 -361 111 -433 237 -366 l44
23 39 -20 c35 -17 45 -18 83 -8 35 9 48 8 72 -4 40 -21 66 -19 126 9 48 22 56
23 127 13 95 -14 143 1 170 53 25 47 17 151 -16 224 -22 47 -148 196 -167 196
-9 0 -40 -79 -40 -102 0 -8 7 -21 15 -28 8 -7 33 -39 55 -72 31 -48 40 -70 40
-104 0 -35 -3 -44 -17 -44 -34 1 -92 27 -141 64 -27 20 -52 36 -55 36 -3 0
-15 -15 -26 -34 -20 -32 -22 -33 -60 -23 -36 10 -42 8 -72 -17 l-33 -28 -37
42 -36 42 -48 -37 c-38 -28 -55 -35 -83 -33 -51 4 -65 38 -119 289 -25 118
-49 218 -53 222 -4 4 -15 -10 -25 -32z"/>
<path d="M8189 6037 c-21 -43 -22 -52 -12 -110 6 -34 32 -179 57 -322 44 -245
58 -298 70 -264 30 82 33 197 10 345 -14 87 -15 112 -4 143 11 35 10 43 -24
122 -20 46 -45 95 -55 109 l-19 24 -23 -47z"/>
<path d="M7353 6051 c-6 -10 -14 -34 -18 -52 -6 -33 -5 -35 50 -62 30 -15 59
-27 64 -27 12 0 41 63 41 89 0 14 -12 27 -37 39 -61 31 -87 34 -100 13z"/>
<path d="M8030 6024 c-25 -40 -23 -74 11 -184 29 -92 37 -267 15 -342 -26 -90
-125 -174 -229 -193 -47 -9 -47 -22 1 -32 68 -15 164 -8 208 15 109 56 160
262 116 472 -24 119 -80 300 -92 300 -4 0 -18 -16 -30 -36z"/>
<path d="M7611 5978 c25 -65 44 -86 139 -152 93 -65 133 -110 212 -233 56 -87
62 -94 70 -72 14 36 -1 123 -32 188 -35 73 -132 173 -229 236 -66 43 -152 85
-172 85 -5 0 1 -24 12 -52z"/>
<path d="M6731 5817 c-17 -43 -13 -89 10 -142 24 -53 27 -102 9 -135 -29 -53
-206 -89 -283 -57 -68 29 -91 117 -67 266 6 35 8 66 5 69 -10 11 -54 -51 -76
-108 -26 -65 -30 -184 -9 -245 21 -63 60 -114 107 -142 40 -23 51 -25 131 -21
99 5 152 26 215 87 62 58 82 104 82 191 -1 63 -5 85 -32 140 -17 36 -42 79
-56 95 l-25 30 -11 -28z"/>
<path d="M6525 5810 c-3 -6 -9 -40 -12 -78 l-6 -67 54 -17 c29 -10 57 -14 61
-10 4 4 13 28 20 55 12 45 11 48 -12 72 -31 30 -97 59 -105 45z"/>
<path d="M5821 5349 l-41 -31 -50 17 c-27 9 -55 13 -61 9 -20 -12 -48 -87 -39
-104 5 -9 29 -27 54 -41 l45 -24 29 28 c34 32 50 33 102 7 22 -11 44 -20 49
-20 9 0 81 110 81 124 0 6 -64 41 -104 56 -19 7 -32 3 -65 -21z"/>
<path d="M8075 5252 c-163 -75 -175 -84 -175 -120 0 -41 5 -40 143 31 102 51
116 65 101 97 -9 18 -11 18 -69 -8z"/>
<path d="M5227 4678 c4 -29 7 -90 7 -135 l-2 -83 39 0 c33 0 41 4 54 31 20 37
22 146 5 180 -23 44 -42 59 -77 59 l-34 0 8 -52z"/>
<path d="M5247 4233 c4 -21 7 -84 7 -140 -2 -112 1 -116 59 -94 41 16 63 98
47 176 -14 66 -40 95 -86 95 l-35 0 8 -37z"/>
<path d="M5203 3854 c24 -81 27 -112 21 -189 -4 -48 -3 -85 2 -85 5 0 25 5 46
10 43 12 58 45 58 129 0 62 -30 141 -53 141 -8 0 -29 3 -47 6 -28 6 -32 5 -27
-12z"/>
<path d="M7061 4647 c-39 -48 -58 -201 -28 -239 6 -9 29 -20 50 -23 l37 -7 0
70 c0 63 11 149 26 195 4 14 -1 17 -34 17 -22 0 -45 -6 -51 -13z"/>
<path d="M6989 4148 c-29 -56 -36 -142 -16 -191 14 -33 20 -37 51 -37 l36 0 0
58 c0 55 13 154 25 193 6 17 1 19 -34 19 -38 0 -42 -3 -62 -42z"/>
<path d="M7006 3771 c-41 -45 -56 -139 -35 -213 10 -37 12 -38 54 -38 l44 0
-6 34 c-5 32 12 190 23 221 9 24 -59 20 -80 -4z"/>
<path d="M716 8887 c-164 -293 -348 -789 -440 -1184 l-14 -62 72 -26 c124 -44
519 -165 561 -171 l41 -6 11 68 c7 38 17 92 23 120 11 49 12 50 43 47 93 -12
137 -25 137 -41 -1 -36 -69 -285 -82 -297 -10 -10 -50 -10 -188 0 -96 7 -178
10 -181 6 -10 -10 -38 -135 -64 -291 -26 -161 -51 -403 -61 -611 -6 -129 -6
-137 12 -143 39 -12 994 -55 994 -45 0 3 9 92 20 199 34 325 60 622 60 681 l0
56 -122 26 c-68 15 -147 32 -176 38 l-54 11 7 67 c4 36 14 107 23 156 17 88
18 90 47 93 17 2 91 -19 170 -47 78 -27 157 -51 175 -53 l35 -3 34 103 c19 56
32 104 29 107 -2 3 -92 29 -199 59 -107 30 -319 91 -471 135 -153 44 -290 82
-304 83 -26 3 -28 -1 -66 -127 -22 -71 -41 -132 -44 -134 -8 -8 -226 84 -232
97 -6 16 72 261 135 422 25 63 80 189 124 279 72 150 81 163 101 157 13 -3
108 -44 213 -91 l190 -85 24 47 c26 51 63 154 58 160 -16 15 -578 263 -598
263 -4 0 -24 -28 -43 -63z m272 -1789 c48 -9 53 -12 48 -31 -21 -86 -48 -274
-58 -408 l-12 -159 -74 0 -75 0 6 168 c7 161 30 402 43 435 6 17 9 17 122 -5z
m382 -18 c30 -6 55 -11 56 -13 2 -1 -8 -63 -21 -137 -13 -74 -31 -206 -39
-293 -8 -87 -16 -160 -17 -161 -2 -2 -34 -1 -71 2 l-68 4 0 77 c0 84 13 260
32 424 l11 107 32 0 c18 0 56 -5 85 -10z"/>
<path d="M10940 8295 c-69 -19 -199 -56 -290 -83 -165 -50 -165 -50 -162 -77
2 -16 38 -123 81 -239 43 -116 109 -293 146 -394 37 -101 75 -192 85 -204 l17
-21 91 23 c51 12 92 25 92 29 0 21 -35 119 -131 373 -60 158 -109 296 -109
307 0 15 20 27 102 59 l102 40 14 -31 c104 -240 268 -738 316 -963 l7 -31 -68
-18 c-37 -10 -194 -46 -348 -80 l-280 -62 1 -91 c2 -109 11 -125 63 -116 40 6
783 151 820 160 23 5 23 6 16 97 -21 292 -117 668 -257 1002 -53 129 -167 355
-177 354 -3 0 -62 -16 -131 -34z"/>
<path d="M11488 7853 c-10 -2 -18 -10 -18 -16 0 -7 22 -79 48 -162 l48 -150
45 -3 c51 -4 138 5 157 17 9 5 0 46 -38 164 l-51 157 -87 -1 c-48 -1 -95 -3
-104 -6z"/>
<path d="M11073 6553 l-113 -4 0 -89 c0 -50 5 -249 11 -443 8 -292 13 -354 25
-364 9 -6 57 -19 107 -27 317 -57 317 -57 317 -80 0 -34 -48 -407 -70 -543
-25 -157 -53 -281 -92 -415 -36 -125 -30 -122 -158 -85 -66 19 -75 25 -78 47
-1 14 26 169 62 345 46 229 61 322 53 327 -23 14 -168 49 -190 46 -18 -2 -25
-15 -39 -73 -26 -101 -166 -743 -173 -790 l-7 -40 192 -59 c105 -33 197 -64
205 -70 12 -9 8 -31 -29 -141 -70 -206 -65 -198 -106 -191 -19 3 -73 22 -120
42 -206 87 -468 191 -496 197 l-31 6 -64 -125 -64 -126 29 -81 c25 -73 290
-779 368 -979 16 -43 33 -78 38 -78 19 0 165 241 319 528 348 648 546 1250
642 1947 26 188 37 688 20 912 -14 189 -40 384 -53 401 -10 12 -187 14 -505 5z
m352 -215 c6 -5 11 -113 14 -270 l3 -261 -103 7 c-171 11 -155 -1 -163 129 -3
62 -9 181 -12 265 l-7 153 129 -7 c71 -3 134 -11 139 -16z m-701 -2631 c92
-42 171 -79 175 -82 7 -8 -181 -377 -195 -382 -6 -2 -39 65 -73 149 -116 279
-158 383 -165 406 l-7 22 48 -19 c26 -10 124 -53 217 -94z"/>
<path d="M550 6063 c0 -10 22 -209 49 -442 33 -284 54 -428 63 -436 22 -22
390 39 612 102 18 5 19 16 12 317 -4 171 -9 332 -13 359 l-6 47 -119 0 -120 0
6 -47 c18 -139 45 -465 40 -478 -4 -8 -9 -15 -13 -15 -3 0 -40 -5 -81 -11 -41
-5 -91 -7 -110 -4 l-36 6 -18 292 c-10 161 -21 296 -26 300 -9 10 -126 26
-192 27 -39 0 -48 -3 -48 -17z"/>
<path d="M674 4975 c21 -136 163 -588 271 -860 311 -785 786 -1472 1429 -2067
113 -105 144 -128 165 -126 19 2 75 60 223 227 109 123 198 232 198 241 0 21
-10 34 -185 240 -297 351 -369 430 -393 430 -13 0 -103 -50 -200 -112 -97 -61
-186 -117 -197 -123 -18 -12 -27 -2 -114 114 -51 69 -132 182 -179 250 -80
116 -84 125 -67 137 10 8 98 54 196 104 145 74 177 94 172 108 -3 9 -21 52
-41 95 -28 61 -40 77 -56 77 -12 0 -109 -43 -216 -94 l-194 -94 -16 26 c-44
75 -221 453 -223 477 -2 27 8 34 193 136 453 251 450 249 450 282 0 32 -45
186 -66 229 -16 31 -21 32 -419 148 -154 45 -361 106 -461 135 -99 29 -202 56
-228 60 l-49 8 7 -48z m694 -377 c159 -35 282 -66 282 -72 0 -6 -39 -31 -88
-56 -48 -25 -162 -85 -254 -133 l-167 -88 -35 113 c-44 144 -86 290 -86 301 0
10 -4 11 348 -65z m1151 -2025 c78 -80 141 -151 141 -158 0 -19 -130 -195
-144 -195 -17 0 -336 360 -356 401 -18 38 -12 49 70 116 l64 51 42 -35 c24
-19 106 -100 183 -180z"/>
<path d="M675 3911 c-64 -23 -135 -59 -135 -69 0 -4 34 -76 75 -160 62 -127
78 -152 96 -152 35 0 169 71 169 90 0 16 -133 287 -148 301 -4 4 -29 0 -57
-10z"/>
<path d="M822 3500 l-83 -39 22 -43 c16 -32 161 -270 174 -285 4 -5 163 76
169 86 8 13 -15 60 -94 187 -62 99 -88 134 -99 134 -3 0 -43 -18 -89 -40z"/>
<path d="M9764 2723 c-120 -126 -278 -289 -351 -364 -73 -74 -133 -140 -133
-146 0 -5 54 -90 119 -188 66 -99 118 -182 115 -186 -6 -10 -229 -179 -283
-214 l-43 -29 -19 23 c-11 13 -69 105 -129 205 -221 364 -265 431 -285 434
-13 1 -48 -24 -99 -71 l-80 -73 24 -40 c13 -21 92 -149 175 -284 170 -275 212
-347 205 -353 -3 -3 -128 -66 -277 -141 l-273 -136 -15 38 c-14 31 -50 128
-131 350 -18 49 -10 49 -136 0 -43 -16 -80 -32 -82 -36 -2 -4 11 -56 30 -117
59 -189 82 -271 89 -307 l7 -35 -194 -66 c-243 -85 -330 -109 -341 -98 -8 8
-119 300 -213 563 -25 70 -51 134 -58 143 -11 15 -23 15 -161 0 -83 -9 -159
-20 -171 -25 -15 -6 -47 -69 -121 -242 -56 -128 -157 -362 -226 -519 -69 -157
-129 -297 -132 -310 l-6 -25 83 8 c1147 106 2129 471 2922 1086 245 190 423
362 709 683 174 196 211 247 194 267 -15 19 -305 287 -399 370 -39 34 -77 62
-83 62 -7 0 -111 -102 -231 -227z m329 -158 c72 -70 77 -77 64 -95 -23 -33
-464 -480 -473 -480 -8 0 -77 101 -123 181 l-21 36 231 217 c127 119 234 216
237 216 4 0 42 -34 85 -75z m-2788 -1463 c37 -108 70 -213 72 -233 l5 -37 -63
-10 c-165 -28 -371 -54 -377 -47 -4 4 56 131 133 282 116 229 141 272 151 258
7 -9 42 -105 79 -213z"/>
<path d="M3060 2699 c0 -79 10 -248 34 -574 19 -246 25 -385 18 -385 -2 0 -49
24 -103 52 l-98 53 -40 -39 c-22 -21 -53 -58 -70 -81 l-30 -42 107 -81 c339
-255 858 -546 1282 -719 529 -216 1094 -350 1556 -370 l141 -6 38 274 c20 151
40 302 43 336 l5 61 -54 7 c-30 3 -81 2 -114 -2 l-60 -8 -21 -175 c-28 -238
-31 -252 -52 -246 -9 2 -37 7 -62 11 -51 7 -314 53 -347 60 -26 6 -26 2 23
249 19 94 34 179 34 191 0 21 -6 23 -89 29 -50 4 -101 4 -115 0 -31 -7 -36
-22 -92 -267 -21 -92 -43 -167 -49 -167 -5 0 -107 38 -225 85 -200 78 -215 85
-212 107 2 13 35 95 72 183 98 229 99 206 -12 239 -51 15 -100 30 -109 32 -11
3 -41 -46 -113 -188 -54 -106 -103 -198 -108 -205 -7 -9 -91 29 -329 147 -175
88 -319 162 -319 165 0 12 52 107 160 295 62 107 137 240 167 294 52 95 54
101 36 114 -33 25 -132 72 -150 72 -12 -1 -53 -53 -118 -147 -175 -256 -295
-423 -304 -423 -11 0 -23 105 -66 572 -19 207 -38 383 -41 391 -4 12 -127 115
-201 170 -10 7 -13 -7 -13 -64z"/>
<path d="M6193 1513 l-31 -4 -6 -112 c-7 -112 -26 -745 -26 -844 l0 -53 104 0
104 0 6 113 c11 190 26 635 26 775 l0 132 -72 -2 c-40 0 -87 -3 -105 -5z"/>
<path d="M8290 597 c-133 -51 -135 -53 -134 -82 2 -33 72 -195 85 -195 12 0
238 85 282 106 20 10 37 20 37 23 0 18 -109 196 -121 198 -8 1 -75 -22 -149
-50z"/>
<path d="M7985 485 c-209 -57 -220 -61 -219 -92 1 -15 17 -63 35 -106 33 -76
34 -77 64 -72 55 11 293 77 306 86 14 8 -1 51 -54 147 -32 58 -43 61 -132 37z"/>
</g>
</svg>
