<svg id="svg" version="1.1" xmlns="http://www.w3.org/2000/svg" xmlns:xlink="http://www.w3.org/1999/xlink" width="400" height="537.7431906614786" viewBox="0, 0, 400,537.7431906614786"><g id="svgg"><path id="path0" d="M153.354 0.383 C 148.744 1.497,148.048 11.030,152.510 11.922 C 153.951 12.210,153.979 12.440,152.717 13.625 C 151.422 14.842,146.947 21.618,146.298 23.346 C 144.708 27.576,139.126 38.312,137.093 41.051 C 132.652 47.032,128.250 53.913,127.260 56.420 C 126.964 57.169,126.412 58.132,126.033 58.560 C 123.357 61.584,120.773 71.732,121.755 75.365 C 122.823 79.314,134.008 93.070,139.885 97.663 C 140.572 98.199,142.045 99.379,143.159 100.283 C 145.230 101.966,150.636 105.347,155.146 107.782 C 156.533 108.531,158.307 109.683,159.087 110.341 C 159.867 110.999,161.779 112.279,163.336 113.184 C 164.892 114.090,167.344 115.725,168.783 116.817 C 176.591 122.742,178.835 123.474,186.554 122.617 C 189.593 122.280,191.254 120.845,195.168 115.175 C 196.128 113.784,197.827 111.583,198.943 110.284 C 205.792 102.314,208.376 98.295,213.905 87.010 C 214.837 85.108,216.082 82.832,216.671 81.951 C 217.261 81.071,218.836 78.424,220.172 76.070 C 221.507 73.716,222.916 71.375,223.302 70.868 L 224.004 69.946 229.220 74.327 C 232.089 76.737,235.012 79.078,235.716 79.529 C 236.765 80.202,236.954 80.526,236.765 81.323 C 235.731 85.683,236.368 92.173,238.187 95.802 C 238.643 96.712,238.911 98.079,238.911 99.504 C 238.911 101.052,239.166 102.240,239.724 103.280 C 240.240 104.243,240.472 105.236,240.360 105.998 C 240.187 107.173,222.743 177.095,222.354 178.174 C 221.966 179.251,216.180 172.451,211.129 164.981 C 203.467 153.647,184.473 147.088,165.370 149.177 C 159.629 149.805,159.373 149.878,151.825 153.063 C 146.336 155.378,144.216 156.646,142.044 158.912 C 140.391 160.637,140.534 160.645,138.473 158.722 C 137.537 157.848,135.843 156.420,134.709 155.549 C 133.259 154.434,132.719 153.781,132.888 153.344 C 137.243 142.079,123.826 134.083,115.144 142.769 C 103.766 154.153,112.277 172.596,124.385 162.792 C 126.391 161.167,125.823 161.047,129.640 163.911 C 131.424 165.248,133.290 166.607,133.788 166.930 L 134.694 167.518 133.907 168.519 C 126.765 177.598,123.410 200.592,127.450 212.772 C 129.217 218.101,132.100 223.359,137.408 230.934 C 140.258 235.000,143.980 240.603,145.679 243.385 C 147.379 246.167,149.352 249.396,150.065 250.560 C 152.819 255.057,153.348 257.402,154.110 268.482 C 154.988 281.246,155.009 283.817,154.267 287.759 C 153.286 292.972,154.088 294.167,158.131 293.511 C 160.086 293.194,159.939 293.398,156.518 295.753 C 154.859 296.894,152.626 298.626,151.556 299.601 C 150.486 300.576,148.473 302.327,147.082 303.492 C 142.735 307.133,135.719 314.430,132.785 318.363 C 131.238 320.438,128.693 323.502,127.131 325.173 C 125.569 326.843,123.355 329.400,122.212 330.855 L 120.134 333.499 118.846 331.586 C 114.199 324.687,104.968 322.005,97.980 325.524 C 85.733 331.691,74.445 343.517,67.260 357.707 C 65.746 360.698,62.521 365.100,55.660 373.541 C 47.909 383.078,45.703 386.383,42.159 393.774 C 40.774 396.663,39.126 400.022,38.497 401.237 C 36.602 404.901,37.103 407.264,41.101 413.526 C 44.194 418.369,47.800 418.510,49.403 413.851 C 51.208 408.607,56.471 400.568,60.053 397.588 C 61.343 396.514,63.199 394.667,64.176 393.484 C 65.154 392.301,67.748 389.330,69.942 386.882 C 72.135 384.434,73.930 382.274,73.930 382.082 C 73.930 381.523,86.095 366.524,88.180 364.512 C 92.533 360.313,94.735 360.761,96.467 366.198 C 96.714 366.975,97.243 367.906,97.643 368.267 C 98.347 368.905,98.326 369.018,96.908 372.108 C 96.104 373.859,95.352 375.730,95.237 376.265 C 95.121 376.800,94.487 379.601,93.827 382.490 C 93.168 385.379,92.183 389.868,91.639 392.465 C 91.095 395.062,90.054 399.089,89.327 401.414 C 88.572 403.830,87.892 406.993,87.741 408.795 L 87.478 411.948 90.354 414.826 C 93.911 418.385,95.696 420.695,95.054 420.909 C 94.797 420.995,93.397 421.944,91.943 423.019 C 90.489 424.093,83.972 428.677,77.461 433.206 C 61.157 444.545,61.920 443.595,64.406 449.479 C 66.799 455.143,70.216 456.964,72.982 454.048 C 74.005 452.969,80.706 448.328,99.165 435.913 L 105.140 431.894 106.577 433.943 C 110.336 439.301,118.610 450.246,120.482 452.335 C 121.632 453.619,122.921 455.068,123.346 455.556 C 124.094 456.414,124.272 456.435,128.888 456.215 C 140.589 455.658,146.356 455.212,147.277 454.793 C 148.080 454.427,148.531 454.465,149.634 454.991 C 150.385 455.349,151.335 455.642,151.746 455.642 C 153.673 455.642,155.642 457.536,155.642 459.391 C 155.642 461.913,152.558 464.981,150.023 464.981 C 149.484 464.981,148.383 465.240,147.576 465.557 C 146.769 465.873,144.533 466.385,142.607 466.693 C 140.681 467.001,138.612 467.442,138.010 467.673 C 137.407 467.904,136.369 468.093,135.703 468.093 C 135.036 468.093,133.953 468.260,133.296 468.464 C 132.639 468.668,130.788 469.121,129.183 469.471 C 127.578 469.821,122.500 471.215,117.899 472.569 L 109.533 475.031 99.416 475.701 C 93.852 476.070,88.145 476.346,86.735 476.316 C 82.433 476.225,81.549 478.663,84.175 483.382 C 84.914 484.711,85.721 486.785,85.968 487.992 C 86.593 491.038,87.321 491.608,90.163 491.274 C 93.017 490.939,92.688 490.940,100.973 491.225 C 110.002 491.535,122.326 490.868,127.007 489.816 C 128.953 489.379,133.382 488.794,136.850 488.517 C 145.886 487.796,155.797 485.838,160.651 483.815 C 162.994 482.839,163.408 483.486,163.486 488.257 C 163.550 492.094,163.627 491.790,164.042 486.063 C 164.225 483.537,164.418 482.779,164.920 482.609 C 165.274 482.490,167.053 481.784,168.872 481.041 C 170.691 480.297,173.674 479.211,175.500 478.626 C 185.904 475.295,191.995 467.032,192.015 456.226 L 192.023 451.556 190.546 448.883 C 189.733 447.413,189.121 446.167,189.184 446.115 C 189.248 446.063,194.640 444.577,201.167 442.814 C 209.027 440.690,214.086 439.107,216.148 438.126 C 217.860 437.311,220.506 436.278,222.029 435.831 C 223.551 435.384,226.300 434.324,228.137 433.475 C 232.213 431.592,236.283 430.051,241.499 428.417 C 246.021 427.001,260.170 421.161,268.021 417.470 C 269.452 416.798,273.424 414.944,276.848 413.351 C 287.773 408.269,288.830 407.693,293.191 404.441 C 295.545 402.686,298.084 400.947,298.833 400.576 C 300.968 399.521,303.450 397.342,304.214 395.852 C 304.830 394.652,304.972 394.564,305.422 395.106 C 306.251 396.105,308.377 395.858,310.178 394.553 C 311.065 393.911,312.056 393.385,312.381 393.385 C 313.791 393.385,330.214 382.581,336.381 377.596 C 342.320 372.796,343.225 372.274,344.147 373.115 C 346.993 375.713,349.808 373.597,349.293 369.245 L 349.068 367.350 351.480 365.430 C 354.483 363.039,361.919 355.099,365.748 350.195 C 367.335 348.161,369.528 345.535,370.621 344.358 C 374.047 340.667,384.765 325.406,385.421 323.283 C 385.576 322.783,386.373 321.235,387.193 319.844 C 388.743 317.215,391.464 309.548,392.164 305.837 C 392.970 301.570,394.164 296.243,394.934 293.487 C 395.366 291.939,395.724 290.188,395.729 289.596 C 395.734 289.005,396.177 287.471,396.714 286.187 C 399.305 279.988,400.893 259.511,399.234 253.696 C 398.776 252.091,398.244 249.377,398.051 247.665 C 397.640 244.021,396.921 243.111,394.559 243.251 C 393.633 243.305,392.723 243.053,391.990 242.539 C 391.366 242.102,389.893 241.432,388.716 241.051 C 387.539 240.670,385.402 239.771,383.967 239.055 C 380.370 237.258,373.846 235.129,370.389 234.625 C 368.806 234.394,366.372 233.960,364.981 233.661 C 363.589 233.361,361.051 233.008,359.339 232.875 C 357.626 232.741,354.912 232.387,353.307 232.086 C 351.702 231.786,346.274 231.084,341.245 230.526 C 336.216 229.968,331.486 229.355,330.735 229.163 C 329.881 228.945,325.134 229.025,318.089 229.377 C 311.885 229.688,304.708 230.047,302.140 230.176 L 297.471 230.410 295.720 227.609 C 287.843 215.011,274.223 211.400,256.830 217.298 C 254.595 218.057,252.703 218.677,252.627 218.677 C 252.551 218.677,251.228 217.489,249.688 216.038 C 248.147 214.586,246.187 212.885,245.331 212.259 C 244.475 211.632,242.926 210.346,241.889 209.401 C 239.059 206.821,238.584 206.944,224.819 213.838 C 218.552 216.976,212.023 220.375,210.311 221.391 C 208.599 222.407,204.835 224.513,201.946 226.070 C 196.268 229.131,194.159 230.463,191.438 232.708 C 190.474 233.503,188.548 234.819,187.158 235.633 C 185.768 236.446,183.842 237.671,182.879 238.354 C 181.916 239.038,180.165 240.078,178.988 240.666 C 177.811 241.253,176.368 242.073,175.781 242.487 C 175.114 242.957,174.236 243.194,173.446 243.118 C 172.207 242.999,172.258 242.941,175.784 240.467 C 184.640 234.254,191.672 229.826,196.498 227.424 C 200.407 225.478,205.934 222.271,213.230 217.713 C 220.551 213.139,224.768 211.057,231.027 208.926 C 235.253 207.487,235.881 207.155,236.603 205.987 C 237.051 205.262,237.593 204.669,237.807 204.669 C 238.166 204.669,236.800 201.953,231.614 192.345 C 230.555 190.382,228.785 187.763,227.682 186.525 L 225.676 184.275 226.612 183.480 C 227.433 182.782,228.702 178.058,236.984 144.876 L 246.421 107.067 248.647 106.808 C 255.666 105.994,255.498 99.407,248.405 97.315 C 244.575 96.185,242.003 91.726,242.029 86.260 C 242.040 84.000,243.706 83.005,245.116 84.416 C 246.103 85.402,248.107 85.461,249.142 84.533 C 249.856 83.894,249.852 83.947,249.076 85.403 C 247.622 88.130,248.292 89.687,251.119 90.145 C 252.396 90.353,252.529 90.491,252.529 91.611 C 252.529 94.653,255.660 95.430,258.159 93.008 C 259.375 91.829,259.533 91.768,259.533 92.478 C 259.533 94.499,262.398 96.118,264.055 95.033 C 269.350 91.565,269.616 81.021,264.375 82.336 C 263.498 82.556,263.424 82.465,263.424 81.171 C 263.424 79.359,262.311 78.210,260.556 78.210 C 259.273 78.210,259.239 78.167,258.981 76.229 C 258.278 70.927,252.918 71.174,252.918 76.508 C 252.918 78.140,252.649 79.089,251.714 80.745 C 250.357 83.150,249.978 83.496,250.761 81.615 C 252.080 78.445,253.067 71.685,252.367 70.617 C 250.911 68.395,248.050 68.669,247.259 71.105 L 246.853 72.357 241.769 68.377 C 235.090 63.149,213.885 46.650,191.743 29.453 C 170.329 12.822,160.462 4.826,158.259 2.317 C 156.491 0.304,155.422 -0.117,153.354 0.383 M165.625 18.112 C 168.427 19.748,192.239 38.184,201.647 46.001 L 205.824 49.472 205.052 50.985 C 203.970 53.105,203.896 52.967,207.875 56.176 C 211.830 59.366,211.683 59.340,213.081 57.126 L 214.068 55.563 214.959 56.400 C 217.406 58.698,218.900 63.294,218.279 66.606 C 217.617 70.136,212.937 78.416,197.730 102.963 C 185.265 123.085,187.355 123.224,157.444 100.274 C 151.052 95.370,145.546 91.317,145.208 91.267 C 144.871 91.218,144.528 90.978,144.447 90.734 C 144.262 90.178,134.425 82.490,133.898 82.490 C 133.685 82.490,132.273 81.221,130.761 79.669 C 125.441 74.211,125.158 71.630,129.038 63.983 C 132.511 57.139,153.445 20.862,155.222 18.609 C 156.810 16.594,162.556 16.320,165.625 18.112 M118.133 31.556 C 117.562 32.005,116.639 33.274,116.083 34.377 C 115.526 35.479,114.656 36.876,114.150 37.481 C 111.222 40.980,115.426 44.415,118.823 41.299 C 120.252 39.987,122.568 35.226,122.568 33.600 C 122.568 31.221,120.040 30.056,118.133 31.556 M122.492 39.708 C 122.129 39.920,121.039 41.768,120.068 43.817 C 119.098 45.865,117.186 49.582,115.819 52.078 C 111.909 59.215,111.705 60.462,114.187 62.088 C 116.349 63.504,120.144 58.242,125.850 45.914 C 127.879 41.530,125.838 37.757,122.492 39.708 M265.587 95.039 C 261.843 98.794,261.853 103.677,265.608 105.246 C 266.390 105.573,267.703 106.448,268.525 107.191 C 272.382 110.675,278.222 109.199,278.202 104.745 C 278.186 101.363,274.738 96.304,271.785 95.329 C 271.073 95.094,270.280 94.648,270.022 94.338 C 269.161 93.300,266.977 93.645,265.587 95.039 M124.435 146.142 C 124.544 146.905,122.466 149.416,121.725 149.416 C 121.063 149.416,120.153 147.454,120.386 146.528 C 120.770 144.997,124.224 144.667,124.435 146.142 M175.903 154.686 C 176.125 154.823,175.438 155.488,174.377 156.164 C 161.936 164.092,158.905 167.214,153.729 177.432 C 148.171 188.402,148.070 195.357,153.306 206.483 C 154.896 209.863,155.413 210.597,156.863 211.536 C 157.797 212.140,159.793 213.549,161.300 214.668 C 164.677 217.176,166.353 217.899,168.797 217.899 C 172.073 217.899,177.639 214.559,178.748 211.928 C 179.032 211.253,181.363 208.161,183.927 205.058 C 186.491 201.955,190.311 196.795,192.416 193.591 C 198.997 183.574,203.807 179.726,210.108 179.438 C 214.637 179.231,215.465 179.577,217.510 182.533 C 218.473 183.926,220.504 186.630,222.022 188.544 C 225.687 193.161,231.054 202.289,230.567 203.077 C 230.457 203.255,229.794 203.628,229.094 203.906 C 219.360 207.772,208.615 213.334,203.003 217.410 C 201.979 218.154,198.389 220.291,195.026 222.160 C 184.006 228.283,177.723 232.419,165.296 241.731 C 160.226 245.530,156.005 248.638,155.915 248.638 C 155.668 248.638,153.155 244.702,152.623 243.482 C 152.367 242.894,151.996 242.412,151.800 242.412 C 151.604 242.412,150.968 241.493,150.386 240.370 C 148.579 236.877,142.948 228.483,139.780 224.558 C 134.609 218.154,131.391 208.502,131.397 199.416 C 131.403 188.765,132.988 181.998,137.318 174.125 L 138.816 171.401 140.751 171.520 C 145.240 171.798,147.827 168.707,145.714 165.592 L 144.698 164.095 145.950 162.804 C 148.574 160.097,160.395 155.209,165.953 154.534 C 169.136 154.147,175.180 154.239,175.903 154.686 M192.545 158.375 C 196.247 159.401,200.121 161.377,202.439 163.422 C 204.010 164.808,210.345 173.443,210.025 173.762 C 209.966 173.821,208.727 174.145,207.270 174.483 C 199.661 176.248,195.077 180.170,187.758 191.181 C 185.294 194.888,181.770 199.658,179.927 201.782 C 178.084 203.905,175.736 206.868,174.709 208.366 C 171.215 213.465,168.425 213.924,163.887 210.147 C 162.647 209.115,161.072 207.981,160.387 207.627 C 159.028 206.924,157.600 204.215,155.751 198.833 C 152.034 188.006,159.329 172.204,171.660 164.372 C 173.229 163.375,174.951 162.157,175.486 161.665 C 179.275 158.180,186.685 156.751,192.545 158.375 M193.470 160.919 C 189.366 163.793,193.176 173.250,198.011 172.189 C 201.302 171.466,202.141 168.775,199.998 165.817 C 199.354 164.929,198.652 164.202,198.438 164.202 C 198.224 164.202,197.777 163.526,197.447 162.699 C 196.597 160.576,194.987 159.856,193.470 160.919 M172.491 178.993 C 170.201 179.915,170.521 184.175,173.129 187.473 C 176.997 192.367,180.600 191.982,180.600 186.675 C 180.600 182.109,175.873 177.631,172.491 178.993 M205.837 184.712 C 203.788 185.465,203.486 186.694,204.723 189.241 C 206.617 193.138,203.777 195.321,198.424 194.085 C 194.188 193.108,193.427 197.752,197.540 199.470 C 205.199 202.671,213.406 194.370,209.723 187.150 C 208.613 184.974,207.323 184.165,205.837 184.712 M247.877 222.076 L 253.810 227.368 252.010 228.237 C 247.604 230.363,245.349 232.850,241.402 239.937 C 240.344 241.836,240.194 241.947,238.391 242.161 C 236.219 242.418,235.678 242.769,235.027 244.341 C 234.627 245.305,234.385 245.443,233.331 245.313 C 229.799 244.877,215.648 244.333,202.724 244.136 C 194.698 244.013,187.432 243.790,186.576 243.639 L 185.019 243.364 187.425 241.724 C 188.748 240.823,192.030 238.522,194.718 236.611 C 197.407 234.701,201.753 232.049,204.375 230.717 C 206.998 229.386,212.390 226.415,216.357 224.115 C 220.324 221.814,225.752 218.954,228.419 217.758 C 231.086 216.562,234.226 215.073,235.397 214.448 L 237.526 213.313 239.734 215.048 C 240.949 216.002,244.613 219.165,247.877 222.076 M281.533 222.124 C 284.911 223.722,292.195 230.892,291.325 231.762 C 290.963 232.124,285.730 232.817,285.122 232.583 C 284.801 232.460,284.053 231.030,283.461 229.406 C 282.686 227.281,281.742 225.688,280.099 223.732 C 277.498 220.633,277.760 220.339,281.533 222.124 M270.567 223.357 C 273.844 224.370,276.563 226.903,278.257 230.523 C 279.956 234.153,279.893 234.252,275.093 235.483 C 269.587 236.895,269.672 236.905,267.925 234.615 C 267.103 233.536,266.097 232.421,265.691 232.136 C 263.942 230.911,257.977 224.891,257.977 224.351 C 257.977 222.652,266.187 222.005,270.567 223.357 M256.055 233.896 C 256.296 234.348,257.452 235.760,258.623 237.033 L 260.751 239.348 259.126 240.525 L 257.500 241.702 256.279 240.548 C 254.590 238.950,253.821 238.618,251.091 238.309 L 248.718 238.041 249.500 236.716 C 251.205 233.826,255.117 232.143,256.055 233.896 M345.914 236.756 C 370.643 240.317,371.199 240.414,375.895 241.992 C 378.367 242.823,381.577 244.133,383.028 244.903 C 384.480 245.673,385.923 246.304,386.235 246.304 C 386.546 246.304,387.539 246.682,388.440 247.146 C 389.341 247.609,390.603 248.096,391.245 248.229 C 392.184 248.424,392.437 248.697,392.536 249.625 C 392.603 250.259,393.101 252.704,393.641 255.058 C 394.624 259.337,394.624 259.341,394.155 267.704 L 393.685 276.070 390.642 287.938 C 388.968 294.465,387.239 301.573,386.800 303.734 C 385.349 310.875,382.402 317.653,377.086 326.070 C 374.767 329.743,367.715 339.237,366.538 340.272 C 366.051 340.700,364.411 342.705,362.893 344.727 C 359.338 349.462,357.379 351.515,356.673 351.243 C 356.289 351.096,356.042 351.404,355.876 352.236 C 355.639 353.422,346.939 362.646,346.058 362.646 C 345.853 362.646,343.928 360.238,341.780 357.296 C 338.300 352.528,336.219 349.405,331.937 342.521 C 330.450 340.132,327.427 336.444,321.790 330.147 C 319.543 327.636,317.206 324.860,316.596 323.978 C 315.986 323.095,314.734 321.586,313.812 320.623 C 312.890 319.660,311.131 317.296,309.903 315.370 C 308.674 313.444,306.402 309.934,304.853 307.571 C 303.304 305.208,301.404 301.995,300.631 300.431 C 299.858 298.867,298.730 296.948,298.125 296.167 C 297.520 295.386,296.182 293.171,295.153 291.245 C 294.124 289.319,291.967 285.644,290.361 283.079 C 288.754 280.513,286.923 277.449,286.291 276.270 C 284.737 273.366,279.933 266.237,278.524 264.741 C 277.896 264.075,276.824 262.740,276.142 261.774 C 275.460 260.809,273.785 258.640,272.418 256.955 C 271.052 255.270,269.427 252.753,268.808 251.362 C 268.189 249.971,267.096 247.674,266.378 246.258 L 265.074 243.683 274.658 241.124 C 279.929 239.716,285.292 238.377,286.576 238.147 C 287.860 237.918,290.224 237.375,291.829 236.941 C 293.787 236.412,296.987 236.028,301.556 235.774 C 305.302 235.566,310.905 235.239,314.008 235.048 C 324.693 234.389,332.316 234.797,345.914 236.756 M251.479 243.717 C 252.172 244.006,253.224 244.879,253.817 245.657 C 255.784 248.236,257.819 248.490,258.952 246.298 C 259.919 244.428,260.477 244.901,262.056 248.930 C 264.742 255.787,264.538 255.464,273.334 266.732 C 277.582 272.174,280.149 275.895,281.509 278.581 C 282.100 279.749,283.482 282.053,284.580 283.703 C 287.145 287.558,288.848 290.459,290.890 294.451 C 291.792 296.214,292.995 298.209,293.563 298.884 C 294.131 299.559,295.043 301.005,295.590 302.098 C 297.050 305.015,308.071 322.145,309.510 323.735 C 310.189 324.484,311.434 325.947,312.278 326.985 C 317.453 333.349,318.591 334.667,319.555 335.415 C 321.859 337.203,326.485 343.599,332.071 352.724 C 333.251 354.650,335.189 357.362,336.380 358.750 C 340.885 364.005,341.539 366.915,338.639 368.801 C 336.400 370.257,336.555 370.357,335.005 366.445 C 334.305 364.677,333.437 362.879,333.078 362.451 C 332.718 362.023,331.314 360.097,329.958 358.171 C 328.602 356.245,326.322 353.444,324.892 351.946 C 323.461 350.447,321.136 347.437,319.726 345.256 C 318.316 343.075,316.705 340.991,316.147 340.625 C 315.588 340.259,314.594 339.178,313.937 338.223 C 313.280 337.269,311.933 335.659,310.943 334.647 C 308.667 332.318,301.515 321.957,300.053 318.872 C 299.445 317.588,298.295 315.760,297.498 314.810 C 296.700 313.860,295.600 312.196,295.052 311.113 C 294.505 310.030,293.470 308.225,292.753 307.102 C 292.036 305.978,290.812 303.790,290.032 302.238 C 288.015 298.222,282.975 289.969,281.418 288.132 C 275.777 281.477,274.956 280.255,271.538 273.427 C 269.604 269.563,267.520 265.776,266.906 265.011 C 266.293 264.245,264.995 261.798,264.023 259.572 C 261.919 254.755,261.712 254.475,260.264 254.475 C 256.215 254.475,256.702 258.768,261.595 266.214 C 263.189 268.639,265.807 273.249,267.414 276.459 C 269.063 279.753,271.474 283.822,272.948 285.798 C 274.385 287.724,275.740 289.650,275.959 290.078 C 276.179 290.506,276.844 291.381,277.438 292.023 C 278.695 293.381,284.737 303.247,286.175 306.288 C 287.568 309.234,292.094 316.742,293.174 317.899 C 293.674 318.434,294.821 320.360,295.724 322.179 C 296.627 323.998,297.930 326.187,298.619 327.043 C 299.309 327.899,300.844 330.055,302.030 331.834 C 304.098 334.934,307.435 339.006,312.096 344.115 C 313.291 345.426,315.343 348.082,316.656 350.018 C 317.968 351.954,319.984 354.580,321.134 355.854 C 323.913 358.933,329.183 366.122,329.183 366.835 C 329.183 367.146,329.813 368.675,330.582 370.232 C 332.291 373.689,332.216 373.898,328.316 376.543 C 326.760 377.599,323.226 380.003,320.462 381.886 C 313.913 386.347,311.886 387.525,309.563 388.216 C 306.830 389.029,305.965 389.715,305.223 391.658 L 304.569 393.370 303.422 392.405 C 301.846 391.079,301.427 391.164,298.899 393.331 C 297.686 394.371,295.554 395.879,294.163 396.681 C 292.772 397.483,291.547 398.260,291.440 398.407 C 290.662 399.476,285.859 402.539,282.296 404.240 C 279.942 405.364,276.265 407.139,274.125 408.185 C 265.794 412.257,260.353 414.567,245.877 420.178 C 237.617 423.379,228.812 426.890,226.309 427.980 C 223.806 429.070,221.171 429.961,220.454 429.961 C 219.653 429.961,219.063 430.187,218.925 430.545 C 218.802 430.866,218.447 431.128,218.135 431.128 C 217.824 431.128,215.563 432.004,213.110 433.074 C 206.680 435.880,207.382 436.265,202.133 427.043 C 199.514 422.440,196.845 418.599,195.497 417.492 C 194.451 416.634,190.847 410.899,189.536 408.006 C 188.229 405.124,185.490 400.771,180.392 393.474 C 178.488 390.750,175.970 386.969,174.796 385.072 C 173.621 383.175,171.928 380.798,171.033 379.791 C 169.687 378.275,163.114 368.857,157.302 360.117 C 156.590 359.047,155.027 356.245,153.828 353.891 C 151.415 349.154,149.539 346.588,147.848 345.714 C 144.199 343.827,142.000 347.084,144.939 350.023 C 145.687 350.771,146.665 352.122,147.114 353.026 C 149.094 357.014,154.441 366.013,156.138 368.213 C 157.160 369.538,159.348 372.636,160.999 375.097 C 162.651 377.558,165.120 380.960,166.485 382.657 C 167.851 384.354,169.806 387.155,170.830 388.883 C 171.854 390.610,173.947 393.676,175.480 395.695 C 177.013 397.714,178.630 400.078,179.073 400.948 C 179.516 401.818,180.704 403.755,181.714 405.253 C 182.724 406.751,184.204 409.275,185.003 410.863 C 187.109 415.044,190.610 420.585,191.490 421.128 C 193.015 422.069,201.167 435.132,201.167 436.635 C 201.167 437.486,199.644 437.917,187.743 440.435 C 178.096 442.476,174.669 443.287,168.677 444.944 C 166.751 445.476,164.566 445.912,163.822 445.913 C 162.456 445.914,159.142 446.493,152.724 447.850 C 144.767 449.532,142.613 449.813,134.445 450.234 C 126.387 450.649,125.872 450.634,125.496 449.980 C 125.088 449.271,123.270 446.828,115.871 437.047 C 110.378 429.788,109.413 428.315,110.013 428.115 C 110.528 427.943,127.137 416.857,142.280 406.576 C 147.450 403.066,152.221 399.896,152.883 399.532 C 154.684 398.539,154.475 397.308,151.742 392.787 C 147.202 385.277,146.025 385.104,138.521 390.849 C 136.046 392.744,121.601 402.888,108.987 411.590 C 100.487 417.453,100.253 417.584,99.648 416.822 C 99.307 416.392,97.934 414.698,96.598 413.058 C 93.556 409.325,93.443 408.862,94.521 404.496 C 95.000 402.558,96.505 396.070,97.866 390.078 C 101.133 375.693,100.649 376.950,107.011 366.321 C 110.078 361.197,113.193 355.691,113.932 354.086 C 115.275 351.172,119.103 345.508,120.541 344.307 C 120.959 343.958,121.617 342.820,122.004 341.778 C 123.105 338.811,129.249 330.350,130.303 330.350 C 130.470 330.350,131.014 331.221,131.513 332.286 C 132.012 333.351,132.847 334.620,133.369 335.107 C 133.891 335.594,134.760 336.860,135.299 337.920 C 138.207 343.634,144.267 346.317,144.677 342.073 C 144.785 340.952,144.494 340.464,142.440 338.325 C 141.141 336.972,140.078 335.697,140.078 335.492 C 140.078 335.287,138.946 333.601,137.563 331.747 C 134.884 328.153,134.167 326.192,135.073 324.933 C 135.364 324.528,136.585 322.823,137.784 321.145 C 140.228 317.726,153.611 304.933,156.852 302.918 C 158.938 301.621,166.678 295.543,168.014 294.153 C 169.759 292.337,171.518 291.057,172.276 291.053 C 172.647 291.051,172.763 292.658,172.763 297.798 C 172.763 317.273,183.300 332.659,197.471 333.872 C 199.397 334.037,202.905 334.363,205.267 334.595 C 210.833 335.144,211.812 334.881,219.585 330.761 C 226.494 327.099,226.867 326.762,232.919 318.705 C 238.049 311.877,239.626 308.188,240.326 301.379 C 240.614 298.587,241.016 295.509,241.220 294.537 C 243.192 285.149,238.514 268.808,232.617 264.488 C 231.727 263.836,229.572 260.189,229.572 259.335 C 229.572 259.280,230.563 258.832,231.775 258.340 C 232.986 257.849,234.739 256.865,235.669 256.155 C 236.600 255.445,237.723 254.864,238.166 254.864 C 238.608 254.864,239.496 254.339,240.138 253.696 C 240.780 253.054,241.559 252.529,241.868 252.529 C 242.178 252.529,243.428 252.179,244.646 251.751 C 248.433 250.420,249.892 250.643,252.298 252.918 C 255.092 255.560,257.977 255.421,257.977 252.644 C 257.977 249.403,254.162 246.499,248.918 245.749 C 245.051 245.196,245.606 243.795,249.915 243.230 C 250.083 243.209,250.786 243.427,251.479 243.717 M337.743 244.577 C 336.994 244.860,335.768 245.106,335.019 245.123 C 331.664 245.198,321.793 251.667,317.936 256.319 C 310.627 265.133,308.205 280.793,312.352 292.412 C 315.667 301.702,326.024 311.608,333.531 312.671 C 334.457 312.802,336.002 313.145,336.965 313.432 C 337.928 313.720,341.167 314.071,344.163 314.213 L 349.611 314.470 354.086 313.023 C 371.653 307.346,381.555 291.481,379.080 272.980 C 378.834 271.146,378.264 268.814,377.813 267.799 C 377.362 266.784,376.833 265.119,376.637 264.099 C 376.150 261.551,373.944 256.907,372.372 255.116 C 370.229 252.675,362.974 248.250,361.114 248.249 C 360.807 248.249,358.858 247.456,356.785 246.486 C 351.637 244.080,341.692 243.083,337.743 244.577 M168.482 246.790 C 168.482 247.057,167.388 248.112,166.051 249.133 C 164.713 250.154,162.491 251.949,161.112 253.121 C 158.498 255.344,157.977 255.610,157.977 254.719 C 157.977 253.966,160.795 251.458,164.290 249.100 C 165.924 247.997,167.371 246.916,167.506 246.699 C 167.848 246.146,168.482 246.205,168.482 246.790 M348.470 249.789 C 351.050 250.024,352.545 250.386,354.028 251.138 C 355.143 251.703,357.320 252.619,358.865 253.174 C 367.331 256.213,369.281 258.344,372.227 267.773 C 378.901 289.130,364.672 309.914,344.163 308.767 C 326.727 307.791,316.634 297.921,315.685 280.917 C 315.051 269.562,319.256 260.568,327.984 254.607 C 333.036 251.156,333.555 250.916,335.335 251.201 C 336.557 251.396,337.256 251.212,339.136 250.202 C 341.112 249.139,341.689 248.999,343.191 249.215 C 344.154 249.354,346.530 249.612,348.470 249.789 M195.136 249.958 C 201.128 249.981,207.957 249.929,210.311 249.842 C 215.748 249.642,223.152 249.985,226.612 250.597 C 228.087 250.858,230.320 250.965,231.573 250.834 C 232.827 250.703,233.852 250.724,233.851 250.881 C 233.850 251.333,230.734 253.117,228.599 253.888 C 226.747 254.557,224.901 255.636,223.825 256.679 C 223.433 257.059,222.990 257.037,221.685 256.571 C 212.283 253.215,207.092 253.563,197.256 258.209 C 194.355 259.579,191.674 260.700,191.296 260.700 C 187.388 260.700,177.118 272.923,174.695 280.457 C 173.946 282.787,173.389 283.891,172.866 284.085 C 172.452 284.238,171.114 285.003,169.892 285.784 C 167.778 287.137,167.495 287.209,164.038 287.280 L 160.406 287.354 160.428 281.323 C 160.440 278.006,160.251 273.366,160.008 271.012 C 159.765 268.658,159.459 265.398,159.327 263.769 L 159.088 260.807 161.159 259.626 C 162.298 258.976,164.480 257.333,166.009 255.973 C 167.537 254.614,169.957 252.601,171.385 251.499 L 173.983 249.497 179.112 249.707 C 181.933 249.822,189.144 249.935,195.136 249.958 M215.094 260.145 C 224.412 262.047,232.641 269.982,235.089 279.429 C 236.642 285.420,235.934 301.644,233.887 307.004 C 232.035 311.852,229.899 314.292,231.058 310.236 C 233.353 302.205,231.095 289.796,225.168 277.862 C 222.242 271.968,212.206 264.575,204.593 262.704 L 201.760 262.007 202.864 261.284 C 205.514 259.548,210.082 259.122,215.094 260.145 M203.891 267.961 C 210.924 269.908,218.526 275.982,221.104 281.712 C 221.730 283.103,222.828 285.467,223.546 286.965 C 228.980 298.319,225.903 321.177,218.488 324.539 C 217.147 325.147,215.960 325.881,215.849 326.170 C 215.349 327.471,210.793 329.348,208.171 329.331 C 195.453 329.253,188.848 326.948,185.082 321.275 C 183.413 318.761,179.091 308.443,178.370 305.253 C 177.699 302.285,178.001 289.454,178.841 285.214 C 179.711 280.820,183.992 272.374,185.348 272.374 C 185.641 272.374,186.650 271.787,187.590 271.070 C 192.311 267.471,198.122 266.363,203.891 267.961 M122.699 268.317 C 121.635 269.380,121.587 271.386,122.597 272.603 C 123.423 273.599,126.284 273.303,127.209 272.127 C 129.566 269.131,125.402 265.613,122.699 268.317 M95.732 273.087 C 95.724 273.919,95.885 274.329,96.182 274.230 C 96.901 273.990,96.951 273.386,96.321 272.552 C 95.774 271.829,95.744 271.857,95.732 273.087 M74.125 283.293 C 66.848 288.640,60.660 293.353,60.374 293.765 C 59.684 294.756,60.124 296.712,61.207 297.470 C 63.197 298.864,63.937 298.449,78.016 288.020 C 90.042 279.112,89.379 279.706,88.570 278.551 C 88.180 277.994,87.938 276.860,87.938 275.594 C 87.938 272.918,89.188 272.222,74.125 283.293 M111.404 274.627 C 110.720 274.993,108.707 276.443,106.929 277.849 C 105.151 279.256,96.255 286.156,87.160 293.184 C 61.371 313.111,62.868 311.772,63.927 313.974 C 65.401 317.040,66.974 316.608,73.735 311.285 C 79.089 307.070,85.931 301.791,103.696 288.169 C 115.585 279.052,115.953 278.716,115.953 276.952 C 115.953 274.445,113.800 273.345,111.404 274.627 M193.969 283.887 C 182.785 289.989,187.220 311.954,199.611 311.830 C 208.412 311.742,212.708 303.367,209.272 292.996 C 207.211 286.773,198.348 281.498,193.969 283.887 M200.410 290.218 C 206.350 294.037,206.653 306.121,200.814 306.272 C 197.053 306.369,195.801 305.506,194.125 301.661 C 190.646 293.685,194.602 286.482,200.410 290.218 M111.372 294.515 C 106.676 298.350,105.814 299.618,106.678 301.421 C 107.920 304.013,110.026 303.648,114.236 300.113 C 115.967 298.660,118.068 296.924,118.906 296.255 C 120.375 295.081,120.404 295.012,119.747 294.279 C 119.373 293.861,119.066 293.311,119.066 293.057 C 119.066 292.556,116.826 291.054,116.076 291.052 C 115.822 291.051,113.705 292.610,111.372 294.515 M44.083 305.686 C 32.859 314.414,31.866 315.711,34.662 317.996 C 36.430 319.442,37.029 319.110,47.482 310.895 C 56.139 304.091,56.805 303.138,54.604 300.706 C 53.104 299.049,51.864 299.635,44.083 305.686 M96.304 307.826 C 94.371 308.923,94.026 310.655,95.428 312.214 C 97.614 314.643,101.355 312.747,100.568 309.609 C 100.128 307.856,97.896 306.923,96.304 307.826 M81.323 320.503 C 80.323 320.861,79.767 321.882,79.767 323.360 C 79.767 326.935,84.889 327.209,85.464 323.665 C 85.841 321.339,83.656 319.670,81.323 320.503 M45.299 325.925 C 36.322 332.752,28.408 338.384,23.959 341.114 C 18.208 344.643,16.972 346.544,19.066 348.638 C 21.218 350.790,26.264 347.876,45.432 333.407 C 49.919 330.020,53.107 327.890,54.083 327.627 C 56.522 326.970,57.327 323.826,55.614 321.648 C 54.032 319.637,53.013 320.059,45.299 325.925 M17.687 325.469 C 16.645 326.511,16.485 327.598,17.179 328.917 C 18.642 331.696,23.396 330.173,22.805 327.114 C 22.315 324.576,19.488 323.667,17.687 325.469 M108.199 330.168 C 111.991 331.479,114.820 334.568,116.001 338.689 C 116.377 339.998,115.733 341.300,112.188 346.408 C 111.034 348.070,109.076 351.572,107.837 354.190 C 106.580 356.846,104.866 359.777,103.959 360.821 C 103.066 361.851,102.335 362.872,102.335 363.091 C 102.335 364.081,101.403 363.000,100.267 360.692 C 95.344 350.684,84.452 356.637,70.351 377.043 C 68.946 379.076,66.857 381.793,65.708 383.081 C 64.559 384.369,62.305 386.967,60.700 388.854 C 59.095 390.742,56.600 393.242,55.156 394.409 C 53.711 395.576,52.529 396.689,52.529 396.880 C 52.529 397.072,51.610 398.534,50.486 400.129 C 49.363 401.723,47.784 404.273,46.977 405.794 C 45.252 409.049,44.961 409.142,43.912 406.771 L 43.120 404.981 44.164 402.977 C 44.739 401.875,45.637 399.835,46.161 398.444 C 47.562 394.726,48.960 392.563,56.225 382.879 C 59.838 378.064,64.299 372.111,66.139 369.650 C 67.978 367.189,71.293 362.111,73.504 358.366 C 75.716 354.621,77.723 351.272,77.965 350.925 C 78.207 350.577,79.185 349.176,80.138 347.812 C 84.554 341.492,96.707 331.528,101.943 329.936 C 103.583 329.437,106.385 329.541,108.199 330.168 M3.502 335.798 C 1.756 337.543,3.273 340.856,5.819 340.856 C 8.235 340.856,9.633 337.278,7.849 335.663 C 6.850 334.760,4.466 334.833,3.502 335.798 M9.425 353.524 C 8.272 354.332,8.222 356.860,9.339 357.977 C 11.168 359.806,14.397 358.283,14.397 355.590 C 14.397 353.300,11.477 352.087,9.425 353.524 M2.465 361.313 C 0.540 363.238,1.742 366.148,4.462 366.148 C 6.482 366.148,7.393 365.271,7.393 363.324 C 7.393 360.636,4.374 359.404,2.465 361.313 M146.729 394.735 C 147.320 395.849,147.514 396.598,147.269 396.820 C 147.059 397.011,137.957 403.155,127.043 410.475 C 116.128 417.795,105.540 424.921,103.513 426.311 C 101.270 427.850,99.558 428.769,99.138 428.659 C 98.290 428.437,95.089 430.495,90.540 434.187 C 88.653 435.718,86.552 437.253,85.870 437.598 C 85.188 437.944,82.230 439.797,79.297 441.716 C 74.038 445.157,70.399 446.621,70.889 445.097 C 71.039 444.631,98.209 425.480,134.825 400.033 C 146.269 392.079,145.501 392.421,146.729 394.735 M76.456 415.817 C 75.388 416.384,73.025 417.844,71.206 419.060 C 69.387 420.276,61.508 425.346,53.696 430.326 C 38.293 440.147,37.542 440.728,37.906 442.548 C 38.844 447.237,39.725 446.831,66.537 429.331 C 72.422 425.490,78.045 421.878,79.032 421.305 C 83.932 418.461,81.447 413.168,76.456 415.817 M245.978 443.288 C 243.371 445.054,234.677 450.930,226.659 456.347 C 209.734 467.782,208.781 468.703,211.284 471.206 C 212.919 472.841,214.825 471.995,224.536 465.329 C 226.557 463.942,233.025 459.498,238.911 455.454 C 244.796 451.410,250.486 447.776,251.556 447.378 C 254.221 446.389,254.994 445.397,254.755 443.277 C 254.277 439.031,252.261 439.033,245.978 443.288 M183.156 448.235 C 190.775 452.881,185.356 469.240,175.097 472.564 C 173.920 472.945,170.843 474.096,168.258 475.120 C 162.595 477.366,148.005 481.712,146.129 481.712 C 145.390 481.712,143.777 481.975,142.544 482.296 C 141.312 482.617,138.545 482.890,136.397 482.903 C 134.248 482.915,131.702 483.072,130.739 483.251 C 129.776 483.430,127.062 483.952,124.708 484.410 C 119.600 485.405,106.079 486.102,102.608 485.550 C 101.367 485.353,100.179 485.298,99.967 485.429 C 99.755 485.560,97.669 485.543,95.330 485.391 L 91.078 485.116 90.633 483.767 C 89.934 481.647,90.101 481.604,101.069 481.104 L 111.093 480.646 116.733 478.872 C 126.403 475.831,132.477 474.343,141.634 472.774 C 155.391 470.417,158.968 468.335,160.953 461.524 C 161.737 458.836,161.479 457.381,159.734 454.653 C 158.957 453.438,158.375 452.406,158.441 452.360 C 158.850 452.073,164.335 450.973,165.355 450.973 C 166.670 450.973,172.589 449.534,176.459 448.273 C 179.479 447.290,181.585 447.278,183.156 448.235 M25.936 449.739 C 24.347 451.495,25.819 454.864,28.176 454.864 C 30.398 454.864,31.846 451.932,30.579 449.998 C 29.769 448.762,26.962 448.605,25.936 449.739 M93.560 450.800 C 90.469 452.430,86.370 454.807,75.486 461.279 C 73.239 462.615,65.798 466.953,58.949 470.918 C 31.206 486.982,33.089 485.739,33.080 487.987 C 33.073 489.619,33.653 490.231,35.471 490.509 C 36.817 490.715,38.169 489.956,89.565 460.118 C 100.327 453.870,100.767 453.491,99.983 451.115 C 99.129 448.528,97.975 448.471,93.560 450.800 M56.420 451.248 C 53.805 452.281,35.925 463.118,34.922 464.279 C 33.968 465.383,34.075 466.795,35.196 467.917 C 37.028 469.748,37.156 469.693,51.946 460.814 C 56.012 458.372,59.557 456.089,59.825 455.739 C 61.426 453.648,58.873 450.280,56.420 451.248 M162.460 461.834 C 161.233 462.313,162.934 463.038,165.247 463.022 L 167.121 463.009 166.202 462.244 C 165.260 461.459,163.822 461.302,162.460 461.834 M20.743 469.643 C 14.015 474.211,13.438 474.745,13.307 476.522 C 12.959 481.241,18.054 479.927,25.973 473.256 C 28.359 471.246,28.659 469.869,27.060 468.270 C 25.628 466.837,24.521 467.078,20.743 469.643 M198.192 473.149 C 197.046 473.611,196.793 474.132,196.818 475.972 C 196.858 478.861,199.892 479.903,201.801 477.683 C 203.984 475.146,201.372 471.866,198.192 473.149 M4.308 478.846 C 2.072 481.689,5.491 485.141,8.474 483.052 C 9.144 482.582,9.339 482.062,9.339 480.739 C 9.339 477.867,6.052 476.630,4.308 478.846 M184.825 485.214 C 182.908 487.131,184.344 490.272,187.137 490.272 C 188.952 490.272,189.883 489.253,189.883 487.268 C 189.883 485.569,188.715 484.436,186.965 484.436 C 186.122 484.436,185.307 484.732,184.825 485.214 M61.936 489.227 C 60.096 491.185,61.346 494.163,64.008 494.163 C 64.851 494.163,65.666 493.867,66.148 493.385 C 66.630 492.903,66.926 492.088,66.926 491.245 C 66.926 488.543,63.775 487.269,61.936 489.227 M23.433 492.045 C 22.386 492.779,22.249 495.091,23.174 496.411 C 24.025 497.627,26.402 497.607,27.559 496.376 C 30.096 493.674,26.499 489.898,23.433 492.045 M51.189 495.806 C 49.752 497.858,50.966 500.778,53.255 500.778 C 55.950 500.778,57.411 497.708,55.627 495.793 C 54.518 494.603,52.027 494.610,51.189 495.806 M120.233 496.606 C 119.484 497.059,114.056 500.394,108.171 504.019 C 102.286 507.644,89.329 515.599,79.377 521.696 C 69.426 527.793,61.155 532.979,60.998 533.220 C 59.880 534.932,61.503 537.743,63.610 537.743 C 64.934 537.743,65.378 537.494,78.794 529.198 C 93.776 519.933,116.727 505.882,120.676 503.557 C 125.755 500.567,126.915 498.844,125.264 496.745 C 124.255 495.463,122.221 495.407,120.233 496.606 M15.370 497.974 C 12.113 498.647,12.646 503.891,15.971 503.891 C 17.339 503.891,19.066 502.395,19.066 501.210 C 19.066 499.047,17.369 497.560,15.370 497.974 M43.025 499.741 C 40.473 502.293,43.756 506.526,46.629 504.389 C 47.868 503.468,48.312 500.470,47.330 499.655 C 46.096 498.632,44.095 498.672,43.025 499.741 M84.237 502.157 C 83.169 502.722,76.488 507.018,69.390 511.704 C 46.367 526.905,40.384 530.739,39.689 530.739 C 37.861 530.739,37.147 534.069,38.652 535.575 C 40.952 537.874,41.050 537.823,67.121 520.580 C 76.323 514.494,84.775 508.929,85.902 508.214 C 91.483 504.674,89.959 499.130,84.237 502.157 M35.898 503.030 C 33.856 503.349,33.190 506.377,34.807 507.994 C 36.701 509.888,39.689 508.588,39.689 505.869 C 39.689 503.786,38.199 502.670,35.898 503.030 M1.025 506.643 C -1.092 508.309,0.308 511.673,3.119 511.673 C 4.949 511.673,5.837 510.635,5.837 508.496 C 5.837 506.010,3.147 504.974,1.025 506.643 M14.425 514.644 C 12.777 516.740,14.060 519.455,16.699 519.455 C 18.603 519.455,19.455 518.520,19.455 516.431 C 19.455 513.660,16.129 512.478,14.425 514.644 " stroke="none" fill="#050505" fill-rule="evenodd"></path><path id="path1" d="M158.080 17.177 C 155.515 17.668,155.699 17.431,148.936 28.988 C 126.078 68.055,124.913 70.529,127.191 75.175 C 128.019 76.863,133.178 82.490,133.898 82.490 C 134.425 82.490,144.262 90.178,144.447 90.734 C 144.528 90.978,144.871 91.218,145.208 91.267 C 145.546 91.317,151.052 95.370,157.444 100.274 C 187.355 123.224,185.265 123.085,197.730 102.963 C 212.937 78.416,217.617 70.136,218.279 66.606 C 218.899 63.300,217.406 58.699,214.970 56.410 L 214.089 55.583 212.686 57.695 C 211.915 58.857,211.284 59.973,211.284 60.174 C 211.284 60.503,206.531 68.505,195.501 86.744 C 184.310 105.247,181.649 104.921,153.078 81.533 C 139.391 70.330,138.894 67.310,148.217 52.002 C 149.670 49.617,151.883 45.914,153.134 43.774 C 159.237 33.336,163.470 32.470,173.708 39.563 C 180.205 44.064,179.935 42.292,177.082 61.721 C 173.728 84.566,173.770 84.195,174.383 85.446 C 176.213 89.179,181.366 89.117,184.334 85.326 C 185.320 84.066,201.618 57.015,204.771 51.403 L 205.846 49.490 201.659 46.011 C 192.241 38.185,168.429 19.749,165.625 18.112 C 163.703 16.990,160.884 16.640,158.080 17.177 M164.008 47.640 C 162.212 48.424,159.347 52.428,154.942 60.311 C 151.403 66.644,152.997 70.408,161.831 76.584 C 165.652 79.255,165.556 79.298,166.262 74.611 C 168.022 62.924,169.357 51.414,169.107 50.083 C 168.690 47.858,166.220 46.675,164.008 47.640 " stroke="none" fill="#f30404" fill-rule="evenodd"></path><path id="path2" d="M142.121 67.121 C 142.126 67.977,142.205 68.281,142.299 67.797 C 142.392 67.313,142.388 66.613,142.291 66.241 C 142.193 65.869,142.117 66.265,142.121 67.121 M236.690 206.142 C 235.804 207.244,234.945 207.783,233.223 208.317 C 225.608 210.679,221.593 212.681,209.780 220.007 C 206.064 222.311,200.461 225.551,197.329 227.205 C 194.197 228.859,190.409 230.996,188.911 231.953 C 187.412 232.910,185.314 234.198,184.246 234.816 C 182.344 235.917,175.460 240.811,173.541 242.428 L 172.568 243.247 173.735 243.051 C 174.844 242.866,176.857 241.814,181.427 239.033 C 188.864 234.506,190.209 233.641,191.329 232.660 C 193.467 230.788,196.875 228.628,202.335 225.683 C 205.224 224.124,208.988 222.017,210.700 220.999 C 215.439 218.183,235.636 208.192,237.273 207.855 C 238.433 207.615,238.739 207.362,238.833 206.566 C 239.052 204.713,238.005 204.506,236.690 206.142 M278.210 221.225 C 278.210 221.372,279.140 222.496,280.277 223.724 C 281.870 225.445,282.635 226.728,283.614 229.321 C 284.312 231.171,285.089 232.684,285.341 232.682 C 286.177 232.677,290.794 231.870,291.112 231.674 C 291.605 231.369,287.600 226.518,285.454 224.821 C 282.833 222.750,278.210 220.455,278.210 221.225 M262.062 222.795 C 256.882 224.045,256.729 223.441,264.039 230.606 L 270.101 236.548 274.580 235.424 C 279.928 234.083,279.549 234.388,278.761 232.056 C 276.520 225.432,268.823 221.163,262.062 222.795 M304.966 235.684 C 305.450 235.777,306.150 235.773,306.522 235.676 C 306.894 235.579,306.498 235.502,305.642 235.507 C 304.786 235.511,304.482 235.591,304.966 235.684 M342.709 243.855 C 343.193 243.948,343.893 243.945,344.265 243.847 C 344.637 243.750,344.241 243.674,343.385 243.678 C 342.529 243.682,342.225 243.762,342.709 243.855 M198.935 244.248 C 199.527 244.338,200.402 244.335,200.881 244.243 C 201.359 244.150,200.875 244.077,199.805 244.080 C 198.735 244.083,198.344 244.159,198.935 244.248 M258.944 246.417 C 258.038 247.862,256.351 248.270,255.283 247.304 C 254.692 246.769,254.604 246.765,254.604 247.275 C 254.604 247.597,254.681 247.783,254.775 247.689 C 255.058 247.406,257.972 250.970,258.036 251.677 C 258.265 254.221,258.613 254.724,260.029 254.559 C 261.714 254.362,262.177 254.934,264.355 259.900 C 265.336 262.134,266.631 264.586,267.234 265.347 C 267.837 266.109,269.791 269.621,271.576 273.152 C 274.959 279.843,276.359 282.153,277.821 283.463 C 278.299 283.891,279.220 285.029,279.868 285.992 C 280.516 286.955,281.518 288.268,282.095 288.911 C 283.360 290.320,288.455 298.713,290.422 302.627 C 291.201 304.179,292.426 306.367,293.143 307.491 C 293.859 308.614,294.921 310.473,295.502 311.622 C 296.083 312.771,296.972 314.095,297.477 314.563 C 297.982 315.031,299.091 316.809,299.942 318.514 C 300.793 320.219,302.480 322.996,303.692 324.684 C 304.903 326.373,306.611 328.820,307.487 330.123 C 308.990 332.357,310.592 334.249,316.182 340.393 C 317.484 341.825,319.226 344.126,320.052 345.507 C 320.877 346.888,322.717 349.252,324.140 350.760 C 325.563 352.268,327.745 354.903,328.988 356.615 C 330.231 358.327,331.849 360.532,332.584 361.515 C 333.318 362.498,334.473 364.675,335.150 366.352 C 336.606 369.958,336.722 370.023,338.878 368.462 C 341.407 366.629,340.548 363.762,335.794 358.171 C 334.520 356.673,332.941 354.444,332.284 353.218 C 331.628 351.991,330.690 350.503,330.200 349.910 C 329.710 349.318,328.681 347.751,327.913 346.429 C 326.058 343.236,323.075 339.407,319.480 335.603 C 317.861 333.891,315.486 331.198,314.202 329.618 C 312.918 328.038,311.145 325.937,310.261 324.949 C 308.545 323.029,297.077 305.390,295.433 302.140 C 294.891 301.070,294.022 299.686,293.502 299.065 C 292.982 298.443,291.932 296.692,291.169 295.174 C 289.477 291.807,285.583 285.262,283.854 282.879 C 283.156 281.916,281.966 279.903,281.211 278.405 C 279.755 275.518,277.628 272.438,273.145 266.732 C 264.791 256.097,264.712 255.969,261.403 247.694 C 260.304 244.945,259.975 244.774,258.944 246.417 M166.342 247.689 C 165.700 248.224,163.687 249.763,161.868 251.108 C 158.996 253.232,157.584 254.868,158.629 254.862 C 158.805 254.861,160.577 253.465,162.566 251.761 C 164.555 250.056,166.700 248.356,167.332 247.982 C 167.965 247.609,168.482 247.166,168.482 246.998 C 168.482 246.408,167.498 246.726,166.342 247.689 M189.202 250.074 C 189.577 250.172,190.190 250.172,190.564 250.074 C 190.939 249.976,190.632 249.896,189.883 249.896 C 189.134 249.896,188.828 249.976,189.202 250.074 M204.341 260.762 C 201.957 261.677,202.076 261.998,205.028 262.615 C 211.929 264.057,222.875 272.421,225.621 278.351 C 230.355 288.573,230.404 288.720,231.343 295.720 C 232.211 302.185,232.046 307.594,230.863 311.476 C 230.664 312.129,230.719 312.175,231.209 311.768 C 232.269 310.888,234.205 306.074,234.611 303.307 C 237.761 281.843,235.988 274.583,225.309 265.218 C 219.963 260.529,210.295 258.474,204.341 260.762 M194.358 268.062 C 191.293 268.811,190.455 269.200,187.886 271.065 C 186.894 271.785,185.843 272.375,185.551 272.377 C 184.901 272.381,182.563 275.955,180.970 279.377 C 178.657 284.348,178.408 286.011,178.406 296.498 L 178.405 306.031 181.057 312.426 C 186.010 324.368,189.862 327.844,198.833 328.467 C 200.866 328.608,204.215 328.850,206.275 329.004 C 210.386 329.311,213.270 328.457,215.579 326.249 C 216.122 325.730,217.523 324.820,218.692 324.228 C 225.869 320.593,228.722 297.928,223.382 286.965 C 222.757 285.681,221.629 283.311,220.876 281.699 C 216.380 272.071,204.000 265.705,194.358 268.062 M201.655 284.530 C 211.617 289.120,213.814 306.562,205.003 311.118 C 197.180 315.164,188.042 308.080,187.616 297.639 C 187.158 286.420,193.303 280.682,201.655 284.530 M163.716 287.045 C 164.197 287.138,164.985 287.138,165.467 287.045 C 165.948 286.952,165.554 286.876,164.591 286.876 C 163.628 286.876,163.234 286.952,163.716 287.045 M194.783 290.233 C 193.170 292.015,192.567 296.767,193.569 299.805 L 194.082 301.362 194.123 298.603 C 194.145 297.086,194.514 294.474,194.942 292.799 C 195.799 289.451,195.779 289.132,194.783 290.233 M172.530 296.887 C 172.530 300.204,172.590 301.561,172.663 299.903 C 172.736 298.244,172.736 295.530,172.663 293.872 C 172.590 292.213,172.530 293.570,172.530 296.887 M204.320 299.169 C 204.265 303.140,201.181 305.951,197.689 305.215 C 196.717 305.010,196.711 305.020,197.471 305.632 C 201.027 308.497,206.021 302.992,204.698 297.665 C 204.408 296.499,204.354 296.715,204.320 299.169 M148.808 309.825 L 147.665 311.089 148.930 309.947 C 150.109 308.881,150.373 308.560,150.073 308.560 C 150.006 308.560,149.437 309.129,148.808 309.825 M102.140 330.116 C 97.998 331.426,91.178 336.217,85.891 341.532 C 81.019 346.429,80.545 347.080,74.354 357.393 C 71.784 361.673,68.055 367.347,66.066 370.002 C 47.313 395.044,47.927 394.154,46.146 398.891 C 45.610 400.314,44.815 402.065,44.377 402.782 C 43.410 404.369,43.377 405.385,44.235 407.185 C 45.105 409.010,45.129 408.996,46.865 405.739 C 47.691 404.188,49.304 401.567,50.449 399.915 C 51.593 398.264,52.529 396.767,52.529 396.591 C 52.529 396.414,53.373 395.626,54.404 394.839 C 58.102 392.019,66.605 382.256,71.459 375.257 C 78.984 364.408,87.075 356.739,91.964 355.822 C 95.178 355.219,99.157 357.657,100.737 361.197 L 101.782 363.537 102.440 362.533 C 102.802 361.981,103.547 361.080,104.096 360.531 C 104.645 359.982,106.319 356.998,107.817 353.901 C 109.314 350.803,110.945 347.783,111.442 347.189 C 113.016 345.304,115.953 340.322,115.953 339.535 C 115.953 333.818,107.868 328.305,102.140 330.116 M143.376 394.256 C 138.770 397.411,127.633 405.170,120.623 410.108 C 116.449 413.048,103.667 421.976,92.218 429.950 C 68.187 446.685,70.224 445.136,72.247 445.136 C 73.589 445.136,74.639 444.604,79.110 441.654 C 82.013 439.739,85.056 437.827,85.871 437.404 C 86.687 436.981,88.980 435.323,90.968 433.719 C 95.581 429.995,98.288 428.262,99.039 428.550 C 99.404 428.690,101.826 427.278,105.361 424.863 C 108.511 422.711,117.656 416.560,125.681 411.195 C 149.942 394.976,148.145 396.483,146.170 394.005 L 145.312 392.930 143.376 394.256 M178.988 447.886 C 178.239 448.030,175.350 448.794,172.568 449.585 C 169.786 450.375,166.196 451.181,164.591 451.374 C 157.902 452.180,158.207 451.924,160.145 455.109 C 161.938 458.054,161.891 460.456,159.963 464.373 C 157.769 468.830,153.827 470.874,144.358 472.463 C 134.134 474.180,126.250 476.078,115.083 479.513 C 110.603 480.890,110.332 480.925,100.978 481.292 C 90.112 481.718,89.448 481.921,90.989 484.349 C 92.216 486.283,125.571 485.455,128.881 483.409 C 129.107 483.269,132.376 482.917,136.144 482.626 C 146.941 481.792,157.692 479.254,167.723 475.170 C 169.767 474.338,172.831 473.192,174.533 472.624 C 181.940 470.152,186.775 463.187,186.300 455.671 C 185.934 449.886,183.282 447.062,178.988 447.886 M166.173 461.881 C 167.497 462.590,166.985 463.035,164.846 463.035 C 163.261 463.035,162.599 462.850,162.062 462.257 C 161.250 461.359,164.623 461.051,166.173 461.881 " stroke="none" fill="#7c7c7c" fill-rule="evenodd"></path><path id="path3" d="M159.870 35.801 C 157.583 37.010,155.761 39.465,150.056 49.026 C 142.877 61.058,142.650 61.571,142.475 66.087 C 142.237 72.259,142.833 73.146,152.532 81.060 C 182.419 105.445,183.986 105.586,196.482 85.019 C 206.988 67.729,211.283 60.356,211.258 59.661 C 211.236 59.032,205.400 53.952,204.147 53.472 C 203.870 53.365,200.019 59.491,194.546 68.744 C 183.154 88.005,181.965 89.342,177.423 87.981 C 173.210 86.719,173.224 87.333,176.834 62.925 C 179.613 44.129,179.613 44.133,177.283 42.258 C 169.472 35.974,163.637 33.810,159.870 35.801 M167.102 47.632 C 169.716 48.725,169.744 49.273,167.905 63.132 C 165.562 80.789,166.067 79.526,162.346 77.041 C 151.561 69.839,150.893 66.664,157.794 55.415 C 162.730 47.370,163.977 46.327,167.102 47.632 M164.591 154.876 C 160.079 155.409,148.607 160.368,146.111 162.864 L 144.721 164.254 145.680 165.393 C 147.727 167.826,147.318 169.151,143.958 170.980 C 142.085 172.000,141.788 172.055,140.573 171.616 C 138.998 171.047,139.157 170.922,137.516 174.008 C 134.802 179.111,134.186 180.586,133.293 184.114 C 129.235 200.147,131.810 214.111,141.028 226.070 C 143.544 229.334,148.026 235.978,149.823 239.105 C 151.497 242.020,151.706 242.230,153.107 242.412 C 154.440 242.586,154.533 242.665,153.955 243.141 C 153.003 243.926,153.166 244.723,154.710 246.828 L 156.094 248.715 156.938 247.932 C 162.952 242.354,184.543 227.726,196.109 221.394 C 198.570 220.046,201.634 218.211,202.918 217.316 C 209.029 213.054,218.057 208.225,225.486 205.244 C 228.054 204.213,230.301 203.246,230.478 203.095 C 231.101 202.561,225.344 192.874,221.585 188.132 C 220.058 186.206,218.069 183.558,217.164 182.247 L 215.519 179.863 212.462 179.596 C 204.630 178.913,199.808 182.442,191.760 194.747 C 189.941 197.529,186.486 202.169,184.084 205.058 C 181.681 207.947,179.298 211.120,178.787 212.109 C 176.670 216.209,169.689 219.079,165.610 217.527 C 164.101 216.953,155.799 211.023,154.894 209.872 C 153.714 208.372,151.005 201.832,150.128 198.366 C 147.315 187.247,154.778 169.648,165.524 162.061 C 173.007 156.778,175.319 155.252,175.853 155.247 C 176.386 155.242,176.389 155.196,175.875 154.864 C 175.202 154.429,168.312 154.436,164.591 154.876 M182.685 158.343 C 179.167 159.392,177.461 160.195,175.711 161.622 C 174.838 162.333,172.636 163.903,170.817 165.109 C 164.281 169.445,160.684 174.059,157.038 182.782 C 153.310 191.701,155.191 203.924,160.865 207.656 C 161.899 208.336,163.292 209.411,163.960 210.045 C 167.949 213.827,171.109 213.227,174.843 207.977 C 175.909 206.479,178.163 203.677,179.853 201.751 C 181.542 199.825,184.777 195.447,187.042 192.023 C 194.967 180.039,200.041 175.666,207.672 174.247 L 210.066 173.802 206.910 169.145 C 200.751 160.058,191.206 155.802,182.685 158.343 M196.710 161.266 C 197.236 161.792,197.665 162.423,197.665 162.668 C 197.665 162.914,198.434 163.970,199.372 165.014 C 202.688 168.701,201.590 172.374,197.171 172.374 C 193.794 172.374,190.228 165.742,191.874 162.523 C 193.023 160.278,195.165 159.721,196.710 161.266 M176.753 179.746 C 180.026 181.821,181.622 185.646,180.560 188.865 C 179.620 191.714,177.529 191.793,174.573 189.092 C 168.489 183.531,170.322 175.668,176.753 179.746 M208.540 185.193 C 215.523 192.177,205.408 203.986,196.651 199.074 C 193.489 197.300,194.216 193.867,197.712 194.066 C 198.649 194.119,200.230 194.206,201.224 194.260 C 204.416 194.433,206.034 192.120,204.679 189.320 C 202.942 185.732,205.908 182.562,208.540 185.193 M229.961 217.107 C 226.002 218.983,219.523 222.410,215.564 224.721 C 211.605 227.033,207.280 229.417,205.954 230.021 C 202.474 231.604,198.039 234.294,193.580 237.526 C 191.440 239.078,188.767 240.975,187.641 241.743 C 184.479 243.897,182.504 243.706,212.257 244.119 C 219.533 244.220,226.274 244.478,227.237 244.691 C 230.484 245.411,234.547 245.233,234.825 244.358 C 235.221 243.110,236.940 242.023,238.518 242.023 C 239.946 242.023,240.003 241.963,242.454 237.844 C 245.417 232.866,247.975 230.152,251.237 228.526 L 253.640 227.327 248.124 222.463 C 240.918 216.110,237.900 213.610,237.492 213.657 C 237.309 213.678,233.920 215.230,229.961 217.107 M253.216 233.634 C 251.420 234.571,250.503 235.318,249.752 236.457 C 248.751 237.976,248.823 238.132,250.526 238.132 C 252.557 238.132,254.386 238.786,256.106 240.126 L 257.542 241.246 258.927 240.429 C 260.583 239.452,260.604 239.317,259.291 238.103 C 258.730 237.584,257.586 236.240,256.749 235.117 C 255.106 232.909,254.828 232.793,253.216 233.634 M321.595 234.846 C 321.167 234.936,315.039 235.272,307.977 235.593 C 299.410 235.981,294.424 236.371,292.996 236.762 C 291.819 237.085,289.543 237.619,287.938 237.949 C 284.958 238.561,265.680 243.573,265.423 243.802 C 265.345 243.871,265.637 244.506,266.072 245.213 C 266.507 245.920,267.413 247.887,268.086 249.585 C 269.432 252.981,269.822 253.599,273.531 258.223 C 280.212 266.550,283.375 270.909,285.494 274.708 C 286.269 276.099,288.428 279.689,290.290 282.685 C 292.152 285.681,294.380 289.533,295.241 291.245 C 296.102 292.957,297.368 295.058,298.054 295.914 C 298.741 296.770,300.002 298.859,300.857 300.555 C 301.713 302.251,303.855 305.841,305.618 308.532 C 307.382 311.222,309.617 314.662,310.585 316.176 C 311.554 317.689,313.333 320.053,314.540 321.429 C 315.746 322.804,318.353 325.821,320.332 328.133 C 322.311 330.444,325.381 334.031,327.155 336.103 C 328.929 338.175,331.929 342.325,333.822 345.324 C 337.642 351.379,345.556 362.616,346.013 362.634 C 347.015 362.674,355.642 353.355,355.642 352.234 C 355.642 350.181,355.991 349.648,356.835 350.412 C 357.688 351.184,358.103 350.820,361.479 346.337 C 362.656 344.773,364.789 342.156,366.220 340.521 C 367.651 338.886,369.402 336.734,370.111 335.738 C 375.235 328.544,376.516 326.702,378.225 324.069 C 379.287 322.434,380.156 320.946,380.157 320.762 C 380.157 320.578,380.785 319.388,381.551 318.117 C 383.282 315.246,385.727 308.473,386.574 304.198 C 386.926 302.424,388.609 295.493,390.314 288.796 C 394.218 273.464,395.269 263.637,393.767 256.505 C 393.329 254.425,392.782 251.717,392.553 250.486 C 392.161 248.387,392.067 248.249,391.032 248.249 C 390.425 248.249,389.829 248.087,389.707 247.890 C 389.585 247.692,388.568 247.230,387.447 246.862 C 386.326 246.495,384.183 245.581,382.685 244.832 C 376.998 241.987,368.103 239.723,358.560 238.694 C 357.276 238.555,351.060 237.701,344.747 236.796 C 338.434 235.892,332.743 235.141,332.101 235.128 C 331.459 235.116,329.008 235.011,326.654 234.894 C 324.300 234.778,322.023 234.756,321.595 234.846 M247.502 244.072 C 245.766 244.957,246.155 245.407,248.842 245.623 C 250.536 245.758,252.081 246.177,253.384 246.853 L 255.359 247.878 254.273 246.410 C 252.190 243.595,249.951 242.822,247.502 244.072 M350.934 244.408 C 352.383 244.625,354.773 245.424,356.650 246.320 C 358.424 247.167,360.105 247.865,360.385 247.870 C 366.178 247.990,376.654 258.232,376.654 263.776 C 376.654 264.192,377.208 265.903,377.886 267.578 C 383.661 281.849,374.957 303.822,360.895 310.474 C 352.846 314.282,342.495 315.676,337.252 313.659 C 336.660 313.431,335.112 313.073,333.811 312.864 C 324.790 311.411,313.978 300.111,311.263 289.300 C 307.299 273.509,312.854 258.137,325.560 249.735 C 331.954 245.507,331.778 245.595,335.326 244.866 C 341.603 243.576,344.750 243.484,350.934 244.408 M173.729 249.816 C 173.582 250.053,172.161 251.210,170.569 252.387 C 168.978 253.564,166.591 255.494,165.266 256.677 C 163.940 257.859,162.108 259.265,161.195 259.801 L 159.533 260.774 159.533 263.197 C 159.533 264.530,159.815 268.409,160.160 271.818 C 160.551 275.691,160.714 279.782,160.592 282.724 L 160.399 287.432 162.203 287.079 C 163.196 286.885,164.831 286.829,165.836 286.954 C 167.513 287.162,167.853 287.051,169.922 285.614 C 171.163 284.753,172.479 284.047,172.845 284.047 C 173.303 284.047,173.641 283.531,173.928 282.393 C 175.858 274.752,186.761 260.700,190.761 260.700 C 191.209 260.700,193.865 259.630,196.664 258.322 C 207.192 253.399,210.374 253.070,219.948 255.919 L 223.359 256.933 224.228 256.137 C 225.175 255.269,227.640 253.963,229.183 253.511 C 229.718 253.355,230.944 252.763,231.907 252.197 L 233.658 251.167 229.961 250.926 C 227.928 250.794,223.025 250.471,219.066 250.209 C 213.554 249.844,210.273 249.836,205.058 250.174 C 198.680 250.587,183.122 250.278,176.200 249.601 C 174.785 249.462,173.900 249.539,173.729 249.816 M339.105 250.379 C 337.910 251.115,337.001 251.340,335.192 251.350 C 333.277 251.360,332.585 251.550,331.496 252.365 C 330.759 252.917,329.018 254.113,327.626 255.023 C 308.522 267.518,313.317 301.353,335.046 307.374 C 360.206 314.346,380.256 292.643,372.002 267.371 C 369.031 258.274,366.962 256.072,358.807 253.325 C 357.487 252.880,355.404 251.991,354.177 251.348 C 352.351 250.391,351.204 250.111,347.860 249.810 C 341.672 249.253,340.846 249.307,339.105 250.379 M245.136 251.751 C 244.173 252.155,242.908 252.495,242.324 252.507 C 241.638 252.521,241.038 252.872,240.628 253.498 C 240.250 254.076,239.345 254.642,238.388 254.900 C 237.505 255.137,236.243 255.806,235.583 256.386 C 234.923 256.966,233.344 257.853,232.074 258.357 C 230.805 258.862,229.728 259.299,229.680 259.328 C 229.284 259.572,231.693 263.299,233.460 265.175 C 237.441 269.402,240.113 274.799,240.824 280.049 C 241.490 284.966,241.734 292.781,241.290 294.979 C 241.056 296.135,240.687 299.034,240.468 301.420 C 239.872 307.930,238.091 312.100,233.015 318.872 C 227.562 326.147,225.309 328.097,218.180 331.712 L 212.041 334.825 208.452 334.818 C 193.845 334.790,185.898 331.853,180.910 324.637 C 175.695 317.094,172.751 307.856,172.474 298.166 C 172.237 289.914,172.523 290.160,168.052 294.356 C 166.638 295.683,164.274 297.621,162.799 298.663 C 161.324 299.705,158.979 301.414,157.588 302.461 C 153.848 305.276,141.274 316.813,139.608 318.959 C 133.749 326.503,133.751 326.484,138.003 332.136 C 139.144 333.653,140.078 335.060,140.078 335.262 C 140.078 335.464,141.031 336.571,142.197 337.722 C 144.717 340.212,145.334 341.452,144.778 342.914 C 143.605 345.999,138.361 343.525,135.498 338.535 C 134.942 337.564,133.949 336.158,133.294 335.409 C 132.638 334.660,131.768 333.303,131.361 332.393 C 130.954 331.483,130.497 330.739,130.344 330.739 C 129.211 330.739,123.244 338.624,122.357 341.294 C 121.975 342.446,120.936 344.151,119.894 345.334 C 117.241 348.352,115.192 351.417,114.203 353.851 C 113.721 355.035,110.751 360.316,107.601 365.587 C 100.741 377.069,101.242 375.918,99.232 384.825 C 98.339 388.784,96.723 395.677,95.641 400.143 C 93.346 409.615,93.229 408.746,97.508 414.058 C 98.951 415.850,100.181 417.380,100.242 417.459 C 100.303 417.539,101.018 417.087,101.830 416.455 C 102.643 415.823,106.634 413.025,110.700 410.237 C 118.163 405.120,135.389 393.033,140.950 389.012 C 146.508 384.993,148.361 385.887,152.980 394.821 L 154.669 398.088 153.502 399.064 C 152.330 400.045,148.075 402.917,123.474 419.336 C 116.161 424.217,110.164 428.421,110.147 428.678 C 110.130 428.935,113.050 433.021,116.634 437.759 C 123.763 447.179,125.542 449.600,125.743 450.152 C 125.905 450.597,143.204 449.655,146.304 449.033 C 147.481 448.796,149.932 448.259,151.751 447.838 C 155.122 447.059,158.189 446.551,163.463 445.899 C 165.089 445.698,167.891 445.094,169.688 444.557 C 173.770 443.338,175.331 442.970,189.433 439.899 C 195.712 438.531,200.953 437.309,201.078 437.184 C 201.700 436.562,194.775 424.868,191.981 421.819 C 189.630 419.254,187.024 415.269,184.784 410.814 C 183.894 409.043,182.338 406.367,181.327 404.867 C 180.316 403.367,179.129 401.433,178.689 400.569 C 178.249 399.704,176.679 397.428,175.200 395.510 C 173.721 393.592,171.756 390.710,170.832 389.105 C 169.909 387.500,168.153 384.961,166.930 383.463 C 165.707 381.965,163.208 378.522,161.377 375.811 C 159.545 373.101,157.315 369.957,156.420 368.825 C 154.723 366.678,149.119 357.399,147.284 353.696 C 146.700 352.519,145.642 350.944,144.933 350.195 C 144.223 349.446,143.607 348.570,143.565 348.249 C 143.230 345.721,144.618 344.387,146.827 345.116 C 149.053 345.851,151.174 348.430,153.907 353.728 C 156.522 358.795,167.837 375.874,170.899 379.373 C 171.840 380.449,173.620 382.948,174.854 384.925 C 176.089 386.903,178.706 390.831,180.670 393.654 C 185.786 401.008,188.464 405.277,189.776 408.171 C 191.345 411.635,194.002 415.683,196.738 418.778 C 197.997 420.203,200.146 423.346,201.514 425.762 C 207.708 436.706,205.983 436.189,218.093 430.740 C 218.949 430.354,220.263 429.932,221.012 429.801 C 221.761 429.670,223.774 428.939,225.486 428.176 C 227.198 427.413,235.778 423.990,244.553 420.570 C 260.313 414.426,264.604 412.606,273.735 408.189 C 276.304 406.946,279.018 405.703,279.767 405.426 C 280.516 405.149,281.566 404.635,282.101 404.283 C 282.636 403.931,284.037 403.181,285.214 402.617 C 286.391 402.053,288.477 400.686,289.849 399.579 C 291.221 398.473,293.376 396.962,294.639 396.222 C 295.901 395.482,297.805 394.103,298.869 393.158 C 301.081 391.194,302.309 390.989,303.677 392.357 L 304.594 393.275 304.822 392.137 C 305.169 390.401,306.929 388.934,309.815 387.973 C 312.284 387.152,316.050 384.795,327.918 376.646 C 330.892 374.603,331.516 374.001,331.509 373.177 C 331.498 371.887,330.151 368.920,329.456 368.653 C 329.160 368.540,328.896 367.857,328.869 367.136 C 328.817 365.759,324.749 360.005,320.360 355.101 C 319.232 353.840,317.305 351.302,316.077 349.459 C 314.850 347.616,312.750 344.883,311.411 343.385 C 310.072 341.887,307.856 339.404,306.487 337.868 C 305.117 336.331,303.157 333.792,302.131 332.226 C 301.105 330.659,299.522 328.414,298.614 327.237 C 297.707 326.060,296.228 323.609,295.329 321.790 C 294.430 319.971,293.288 318.045,292.792 317.510 C 291.819 316.459,288.993 311.739,285.803 305.837 C 283.018 300.684,278.343 293.067,276.966 291.440 C 273.594 287.454,270.065 281.974,267.068 276.070 C 265.221 272.432,263.477 269.186,263.193 268.857 C 259.072 264.092,256.498 257.101,258.181 255.243 C 259.228 254.085,258.484 253.225,257.386 254.323 C 256.055 255.654,255.079 255.483,252.999 253.556 C 249.928 250.712,248.432 250.368,245.136 251.751 M194.965 292.706 C 192.440 303.185,196.711 308.968,202.834 303.360 L 204.280 302.035 204.280 298.275 C 204.280 292.911,202.016 289.862,197.580 289.254 L 195.853 289.018 194.965 292.706 " stroke="none" fill="#fbfbfb" fill-rule="evenodd"></path><path id="path4" d="M154.573 192.412 C 154.577 193.268,154.657 193.573,154.750 193.089 C 154.843 192.605,154.839 191.904,154.742 191.532 C 154.645 191.160,154.569 191.556,154.573 192.412 M131.219 198.054 C 131.219 198.804,131.299 199.110,131.397 198.735 C 131.494 198.361,131.494 197.748,131.397 197.374 C 131.299 196.999,131.219 197.305,131.219 198.054 M263.035 229.694 C 263.035 229.761,263.604 230.330,264.300 230.958 L 265.564 232.101 264.421 230.837 C 263.356 229.658,263.035 229.393,263.035 229.694 M217.218 244.248 C 217.806 244.337,218.769 244.337,219.358 244.248 C 219.946 244.158,219.465 244.085,218.288 244.085 C 217.111 244.085,216.629 244.158,217.218 244.248 M223.833 244.626 C 224.207 244.724,224.820 244.724,225.195 244.626 C 225.569 244.528,225.263 244.448,224.514 244.448 C 223.765 244.448,223.458 244.528,223.833 244.626 M212.359 249.692 C 212.843 249.785,213.543 249.781,213.915 249.684 C 214.287 249.586,213.891 249.510,213.035 249.514 C 212.179 249.519,211.875 249.598,212.359 249.692 M195.817 250.478 C 196.620 250.562,197.933 250.562,198.735 250.478 C 199.538 250.394,198.881 250.325,197.276 250.325 C 195.671 250.325,195.015 250.394,195.817 250.478 M208.658 259.817 C 209.460 259.900,210.773 259.900,211.576 259.817 C 212.378 259.733,211.722 259.664,210.117 259.664 C 208.512 259.664,207.855 259.733,208.658 259.817 M229.572 269.382 C 229.572 269.449,230.141 270.018,230.837 270.647 L 232.101 271.790 230.958 270.525 C 229.893 269.347,229.572 269.082,229.572 269.382 M220.233 271.790 C 221.396 272.967,222.435 273.930,222.542 273.930 C 222.649 273.930,221.785 272.967,220.623 271.790 C 219.460 270.613,218.422 269.650,218.315 269.650 C 218.208 269.650,219.071 270.613,220.233 271.790 M190.832 286.089 L 189.689 287.354 190.953 286.211 C 192.132 285.146,192.397 284.825,192.096 284.825 C 192.029 284.825,191.460 285.394,190.832 286.089 M206.031 287.938 C 207.085 289.008,208.035 289.883,208.142 289.883 C 208.249 289.883,207.474 289.008,206.420 287.938 C 205.366 286.868,204.416 285.992,204.309 285.992 C 204.202 285.992,204.977 286.868,206.031 287.938 M177.952 300.778 C 177.952 302.383,178.021 303.040,178.104 302.237 C 178.188 301.435,178.188 300.122,178.104 299.319 C 178.021 298.517,177.952 299.173,177.952 300.778 M231.608 300.000 C 231.608 300.749,231.688 301.055,231.786 300.681 C 231.884 300.306,231.884 299.694,231.786 299.319 C 231.688 298.945,231.608 299.251,231.608 300.000 M308.560 323.079 C 308.560 323.146,309.129 323.715,309.825 324.344 L 311.089 325.486 309.947 324.222 C 308.881 323.043,308.560 322.778,308.560 323.079 M312.451 327.748 C 312.451 327.815,313.020 328.384,313.716 329.013 L 314.981 330.156 313.838 328.891 C 312.772 327.712,312.451 327.448,312.451 327.748 M197.568 328.690 C 198.478 328.771,199.966 328.771,200.875 328.690 C 201.785 328.608,201.041 328.541,199.222 328.541 C 197.403 328.541,196.659 328.608,197.568 328.690 M206.712 329.462 C 207.301 329.551,208.264 329.551,208.852 329.462 C 209.441 329.372,208.959 329.299,207.782 329.299 C 206.605 329.299,206.124 329.372,206.712 329.462 M322.957 331.639 C 322.957 331.706,323.526 332.275,324.222 332.904 L 325.486 334.047 324.344 332.782 C 323.278 331.603,322.957 331.339,322.957 331.639 M196.984 334.131 C 197.573 334.220,198.536 334.220,199.125 334.131 C 199.713 334.042,199.232 333.969,198.054 333.969 C 196.877 333.969,196.396 334.042,196.984 334.131 M320.233 336.381 C 320.959 337.130,321.641 337.743,321.748 337.743 C 321.855 337.743,321.349 337.130,320.623 336.381 C 319.897 335.632,319.215 335.019,319.108 335.019 C 319.001 335.019,319.507 335.632,320.233 336.381 M142.218 338.132 C 143.272 339.202,144.222 340.078,144.329 340.078 C 144.436 340.078,143.661 339.202,142.607 338.132 C 141.553 337.062,140.603 336.187,140.496 336.187 C 140.389 336.187,141.164 337.062,142.218 338.132 M84.415 342.704 L 83.074 344.163 84.533 342.823 C 85.891 341.574,86.171 341.245,85.874 341.245 C 85.809 341.245,85.152 341.902,84.415 342.704 M324.514 351.556 C 325.676 352.733,326.715 353.696,326.822 353.696 C 326.929 353.696,326.065 352.733,324.903 351.556 C 323.740 350.379,322.702 349.416,322.595 349.416 C 322.488 349.416,323.351 350.379,324.514 351.556 M92.315 355.910 C 92.690 356.008,93.303 356.008,93.677 355.910 C 94.052 355.812,93.745 355.732,92.996 355.732 C 92.247 355.732,91.941 355.812,92.315 355.910 M79.356 365.272 L 78.016 366.732 79.475 365.391 C 80.833 364.142,81.113 363.813,80.816 363.813 C 80.751 363.813,80.094 364.470,79.356 365.272 M57.567 392.121 L 56.226 393.580 57.685 392.239 C 59.043 390.991,59.323 390.661,59.026 390.661 C 58.961 390.661,58.304 391.318,57.567 392.121 M71.304 445.404 C 71.678 445.502,72.291 445.502,72.665 445.404 C 73.040 445.307,72.733 445.226,71.984 445.226 C 71.235 445.226,70.929 445.307,71.304 445.404 M164.105 451.247 C 164.587 451.340,165.375 451.340,165.856 451.247 C 166.338 451.155,165.944 451.079,164.981 451.079 C 164.018 451.079,163.624 451.155,164.105 451.247 M142.510 472.642 C 142.884 472.740,143.497 472.740,143.872 472.642 C 144.246 472.544,143.940 472.464,143.191 472.464 C 142.442 472.464,142.135 472.544,142.510 472.642 M101.654 481.217 C 102.456 481.301,103.769 481.301,104.572 481.217 C 105.375 481.133,104.718 481.065,103.113 481.065 C 101.508 481.065,100.851 481.133,101.654 481.217 M92.704 481.591 C 93.079 481.689,93.692 481.689,94.066 481.591 C 94.441 481.493,94.134 481.413,93.385 481.413 C 92.636 481.413,92.330 481.493,92.704 481.591 M146.401 481.591 C 146.775 481.689,147.388 481.689,147.763 481.591 C 148.137 481.493,147.831 481.413,147.082 481.413 C 146.333 481.413,146.026 481.493,146.401 481.591 M137.257 482.772 C 137.952 482.858,139.090 482.858,139.786 482.772 C 140.482 482.685,139.912 482.615,138.521 482.615 C 137.130 482.615,136.561 482.685,137.257 482.772 M91.931 485.104 C 92.523 485.194,93.398 485.191,93.877 485.099 C 94.356 485.006,93.872 484.933,92.802 484.936 C 91.732 484.939,91.340 485.015,91.931 485.104 M96.797 485.496 C 97.496 485.583,98.547 485.581,99.131 485.492 C 99.716 485.403,99.144 485.332,97.860 485.335 C 96.576 485.337,96.097 485.409,96.797 485.496 M114.889 485.493 C 115.480 485.583,116.356 485.580,116.834 485.488 C 117.313 485.396,116.829 485.322,115.759 485.325 C 114.689 485.328,114.297 485.404,114.889 485.493 M104.966 485.878 C 105.450 485.971,106.150 485.968,106.522 485.870 C 106.894 485.773,106.498 485.697,105.642 485.701 C 104.786 485.706,104.482 485.785,104.966 485.878 " stroke="none" fill="#747474" fill-rule="evenodd"></path></g></svg>